<svg width="81" height="80" viewBox="0 0 81 80" fill="none" xmlns="http://www.w3.org/2000/svg">
    <g filter="url(#filter0_ii_3013_20370)">
        <circle cx="40.6667" cy="40" r="34" fill="white" fill-opacity="0.1" />
    </g>
    <g clip-path="url(#clip0_3013_20370)">
        <path
            d="M37.747 54.3596C37.7028 54.3596 37.659 54.3568 37.6142 54.3504C37.219 54.296 36.899 54.0016 36.8103 53.6124L32.0103 32.4924C31.937 32.1708 32.0343 31.8342 32.2676 31.6009C32.5006 31.3683 32.8385 31.271 33.1591 31.343L54.2791 36.143C54.6682 36.232 54.962 36.5516 55.0174 36.9475C55.0721 37.343 54.8762 37.7312 54.5262 37.9225L48.1988 41.3744L54.7454 47.9209C55.1204 48.296 55.1204 48.9033 54.7454 49.2784L49.9454 54.0784C49.5703 54.4534 48.963 54.4534 48.5879 54.0784L42.0407 47.5318L38.5895 53.8592C38.4196 54.1702 38.0945 54.3596 37.747 54.3596ZM41.8126 44.9856C42.0654 44.9856 42.3098 45.0857 42.4913 45.2668L49.2666 52.0422L52.7092 48.5996L45.9338 41.8243C45.7198 41.6105 45.6193 41.3078 45.6625 41.0086C45.7057 40.7094 45.8874 40.448 46.1527 40.3027L51.3774 37.4528L34.2206 33.5536L38.1198 50.7107L40.9697 45.486C41.1146 45.2198 41.3761 45.038 41.6756 44.9948C41.721 44.9884 41.7671 44.9856 41.8126 44.9856ZM30.7454 30.0784C31.1204 29.7033 31.1204 29.096 30.7454 28.7209L27.8654 25.8409C27.4903 25.4659 26.883 25.4659 26.5079 25.8409C26.1329 26.216 26.1329 26.8233 26.5079 27.1984L29.3879 30.0784C29.5754 30.2659 29.8209 30.3596 30.0666 30.3596C30.3124 30.3596 30.5578 30.2659 30.7454 30.0784ZM34.8666 27.4796V24.5996C34.8666 24.0691 34.4369 23.6396 33.9066 23.6396C33.3764 23.6396 32.9466 24.0691 32.9466 24.5996V27.4796C32.9466 28.0102 33.3764 28.4396 33.9066 28.4396C34.4369 28.4396 34.8666 28.0102 34.8666 27.4796ZM29.1066 33.2396C29.1066 32.7091 28.6769 32.2796 28.1466 32.2796H25.2666C24.7364 32.2796 24.3066 32.7091 24.3066 33.2396C24.3066 33.7702 24.7364 34.1996 25.2666 34.1996H28.1466C28.6769 34.1996 29.1066 33.7702 29.1066 33.2396ZM27.8654 39.6784L29.7854 37.7584C30.1604 37.3833 30.1604 36.776 29.7854 36.4009C29.4103 36.0259 28.803 36.0259 28.4279 36.4009L26.5079 38.3209C26.1329 38.696 26.1329 39.3033 26.5079 39.6784C26.6954 39.8659 26.9409 39.9596 27.1866 39.9596C27.4324 39.9596 27.6778 39.8659 27.8654 39.6784ZM38.4254 29.1184L40.3454 27.1984C40.7204 26.8233 40.7204 26.216 40.3454 25.8409C39.9703 25.4659 39.363 25.4659 38.9879 25.8409L37.0679 27.7609C36.6929 28.136 36.6929 28.7433 37.0679 29.1184C37.2554 29.3059 37.5009 29.3996 37.7466 29.3996C37.9924 29.3996 38.2378 29.3059 38.4254 29.1184Z"
            fill="white" />
    </g>
    <defs>
        <filter id="filter0_ii_3013_20370" x="6.66675" y="6" width="68" height="68" filterUnits="userSpaceOnUse"
            color-interpolation-filters="sRGB">
            <feFlood flood-opacity="0" result="BackgroundImageFix" />
            <feBlend mode="normal" in="SourceGraphic" in2="BackgroundImageFix" result="shape" />
            <feColorMatrix in="SourceAlpha" type="matrix" values="0 0 0 0 0 0 0 0 0 0 0 0 0 0 0 0 0 0 127 0"
                result="hardAlpha" />
            <feOffset />
            <feGaussianBlur stdDeviation="5" />
            <feComposite in2="hardAlpha" operator="arithmetic" k2="-1" k3="1" />
            <feColorMatrix type="matrix" values="0 0 0 0 1 0 0 0 0 1 0 0 0 0 1 0 0 0 0.16 0" />
            <feBlend mode="normal" in2="shape" result="effect1_innerShadow_3013_20370" />
            <feColorMatrix in="SourceAlpha" type="matrix" values="0 0 0 0 0 0 0 0 0 0 0 0 0 0 0 0 0 0 127 0"
                result="hardAlpha" />
            <feMorphology radius="15" operator="dilate" in="SourceAlpha" result="effect2_innerShadow_3013_20370" />
            <feOffset dx="-10" dy="-10" />
            <feGaussianBlur stdDeviation="7.5" />
            <feComposite in2="hardAlpha" operator="arithmetic" k2="-1" k3="1" />
            <feColorMatrix type="matrix" values="0 0 0 0 1 0 0 0 0 1 0 0 0 0 1 0 0 0 0.1 0" />
            <feBlend mode="normal" in2="effect1_innerShadow_3013_20370" result="effect2_innerShadow_3013_20370" />
        </filter>
        <clipPath id="clip0_3013_20370">
            <rect width="32" height="32" fill="white" transform="translate(23.6667 23)" />
        </clipPath>
    </defs>
</svg>