<svg width="50" height="50" viewBox="0 0 50 50" fill="none" xmlns="http://www.w3.org/2000/svg">
    <path
        d="M44.043 47.0703C44.8526 47.0703 45.5078 47.7255 45.5078 48.5352C45.5078 49.3448 44.8526 50 44.043 50H5.95703C5.14736 50 4.49219 49.3448 4.49219 48.5352C4.49219 47.7255 5.14736 47.0703 5.95703 47.0703H20.9273H32.0023H44.043Z"
        fill="black" />
    <path
        d="M28.7501 17.6758L27.1973 20.9863C39.0484 23.388 41.1133 34.5079 41.1133 35.2539C41.1133 36.8652 39.7949 38.1836 38.1836 38.1836C36.7774 38.1836 35.6055 37.2167 35.3126 35.8983C35 34.3371 32.8079 27.525 25.0294 26.5528C21.3672 32.0897 16.3867 35.2539 8.88672 35.2539C7.27539 35.2539 5.95703 33.9355 5.95703 32.3242C5.95703 30.7129 7.27539 29.3945 8.88672 29.3945C17.0604 29.3945 19.6386 25.2345 22.7147 17.6758C18.449 17.823 16.5206 20.0242 13.9257 22.6562C13.3983 23.1836 12.6368 23.5352 11.8164 23.5352C10.2051 23.5352 8.88672 22.2168 8.88672 20.6055C8.88672 19.7851 9.23828 19.0235 9.76562 18.4962C10.9832 17.2958 15.1876 11.8164 23.0078 11.8164H28.9259C33.1738 11.8164 36.9532 9.12119 38.3301 5.07812C38.6816 3.87686 39.7949 3.02734 41.1133 3.02734C43.1164 3.02734 44.5653 5.03154 43.8672 6.95322C41.6992 13.3692 35.6935 17.6758 28.9259 17.6758H28.7501Z"
        fill="black" />
    <path
        d="M27.9297 8.78906C30.3567 8.78906 32.3242 6.82156 32.3242 4.39453C32.3242 1.9675 30.3567 0 27.9297 0C25.5027 0 23.5352 1.9675 23.5352 4.39453C23.5352 6.82156 25.5027 8.78906 27.9297 8.78906Z"
        fill="black" />
</svg>