<svg width="108" height="17" viewBox="0 0 108 17" fill="none" xmlns="http://www.w3.org/2000/svg">
    <path fill-rule="evenodd" clip-rule="evenodd"
        d="M3.13522 0.889428C3.13522 0.461853 2.80132 0.115234 2.38942 0.115234H1.67939C1.2675 0.115234 0.933594 0.461852 0.933594 0.889428V12.728C0.933594 13.0809 1.04974 13.4232 1.26279 13.6983L2.68725 15.5371C2.97038 15.9026 3.39784 16.1152 3.84965 16.1152L9.24565 16.1152C9.69737 16.1152 10.1248 15.9027 10.4079 15.5373L11.8323 13.699C12.0455 13.4239 12.1617 13.0815 12.1617 12.7285V0.889428C12.1617 0.461853 11.8278 0.115234 11.4159 0.115234H10.7058C10.2939 0.115234 9.96004 0.461853 9.96004 0.889428V11.1734C9.96004 11.601 9.62614 11.9476 9.21425 11.9476H3.88101C3.46912 11.9476 3.13522 11.601 3.13522 11.1734V0.889428ZM19.073 3.50927C19.073 3.93685 19.4069 4.28347 19.8188 4.28347H22.7309C23.1427 4.28347 23.4766 4.63008 23.4766 5.05766V15.341C23.4766 15.7686 23.8105 16.1152 24.2224 16.1152H24.9324C25.3443 16.1152 25.6782 15.7686 25.6782 15.341V5.05766C25.6782 4.63009 26.0121 4.28347 26.424 4.28347H29.5553C29.9672 4.28347 30.3011 3.93685 30.3011 3.50927V0.889428C30.3011 0.461853 29.9672 0.115234 29.5553 0.115234H19.8188C19.4069 0.115234 19.073 0.461852 19.073 0.889428V3.50927ZM46.7361 5.0578C46.7361 4.63022 46.4022 4.28361 45.9903 4.28361H40.6571C40.2452 4.28361 39.9113 4.63022 39.9113 5.0578V11.1727C39.9113 11.6002 40.2452 11.9469 40.6571 11.9469H45.9903C46.4022 11.9469 46.7361 11.6002 46.7361 11.1727V5.0578ZM47.1839 0.694074C46.9008 0.328667 46.4734 0.116115 46.0217 0.116055L40.6259 0.11533C40.174 0.11527 39.7464 0.327924 39.4632 0.693572L38.0387 2.53302C37.8258 2.80803 37.7097 3.1503 37.7097 3.50316V12.7288C37.7097 13.0818 37.8259 13.4243 38.0391 13.6994L39.4635 15.5374C39.7466 15.9028 40.174 16.1152 40.6257 16.1152H46.0216C46.4733 16.1152 46.9006 15.9028 47.1837 15.5374L48.6083 13.6994C48.8215 13.4243 48.9377 13.0818 48.9377 12.7288V3.50332C48.9377 3.15037 48.8216 2.808 48.6085 2.53295L47.1839 0.694074ZM66.3673 5.05748C66.3673 4.62991 66.0334 4.28329 65.6215 4.28329H60.2881C59.8762 4.28329 59.5423 4.62991 59.5423 5.05748V7.00465C59.5423 7.43222 59.8762 7.77884 60.2881 7.77884H65.6215C66.0334 7.77884 66.3673 7.43222 66.3673 7.00465V5.05748ZM68.5686 3.50323C68.5687 3.1502 68.4526 2.80773 68.2395 2.53259L66.8151 0.693437C66.532 0.327867 66.1045 0.115234 65.6526 0.115234H60.2568C59.805 0.115234 59.3775 0.327861 59.0944 0.693423L57.6698 2.53279C57.4568 2.8078 57.3407 3.1501 57.3407 3.50298V15.341C57.3407 15.7686 57.6746 16.1152 58.0865 16.1152H58.7965C59.2084 16.1152 59.5423 15.7686 59.5423 15.341V12.7211C59.5423 12.2935 59.8762 11.9469 60.2881 11.9469H65.6524C66.1044 11.9469 66.532 11.7341 66.8151 11.3684L68.2383 9.52999C68.451 9.25514 68.567 8.91314 68.5671 8.56055L68.5686 3.50323ZM76.4745 3.50927C76.4745 3.93685 76.8084 4.28347 77.2203 4.28347H80.1323C80.5442 4.28347 80.8781 4.63009 80.8781 5.05766V11.1728C80.8781 11.6004 80.5442 11.947 80.1323 11.947H77.2203C76.8084 11.947 76.4745 12.2936 76.4745 12.7212V15.341C76.4745 15.7686 76.8084 16.1152 77.2203 16.1152H80.8781H83.0797H86.9568C87.3687 16.1152 87.7026 15.7686 87.7026 15.341V12.7212C87.7026 12.2936 87.3687 11.947 86.9568 11.947H83.8255C83.4136 11.947 83.0797 11.6004 83.0797 11.1728V5.05766C83.0797 4.63009 83.4136 4.28347 83.8255 4.28347H86.9568C87.3687 4.28347 87.7026 3.93685 87.7026 3.50928V0.889428C87.7026 0.461853 87.3687 0.115234 86.9568 0.115234H77.2203C76.8084 0.115234 76.4745 0.461852 76.4745 0.889427V3.50927ZM98.3071 5.05766C98.3071 4.63009 98.6411 4.28347 99.0529 4.28347H104.386C104.798 4.28347 105.132 4.63009 105.132 5.05766V7.00543C105.132 7.433 104.798 7.77962 104.386 7.77962H99.0529C98.6411 7.77962 98.3071 7.433 98.3071 7.00543V5.05766ZM98.3071 12.722C98.3071 12.2945 98.6411 11.9479 99.0529 11.9479H104.386C104.798 11.9479 105.132 12.2945 105.132 12.722V15.341C105.132 15.7686 105.466 16.1152 105.878 16.1152H106.588C107 16.1152 107.334 15.7686 107.334 15.341V3.50255C107.334 3.14961 107.217 2.80726 107.004 2.53222L105.58 0.693292C105.297 0.327808 104.869 0.115234 104.417 0.115234H99.0216C98.5698 0.115234 98.1423 0.327821 97.8592 0.693324L96.4347 2.53223C96.2217 2.80727 96.1055 3.14961 96.1055 3.50253V15.341C96.1055 15.7686 96.4394 16.1152 96.8513 16.1152H97.5614C97.9732 16.1152 98.3071 15.7686 98.3071 15.341V12.722Z"
        fill="white" />
</svg>