<svg width="32" height="32" viewBox="0 0 32 32" fill="none" xmlns="http://www.w3.org/2000/svg">
    <path fill-rule="evenodd" clip-rule="evenodd"
        d="M22.904 1.5418C22.4289 1.06671 21.7845 0.799805 21.1126 0.799805H10.887C10.2151 0.799805 9.57074 1.06671 9.09565 1.5418L1.5418 9.09565C1.06671 9.57074 0.799805 10.2151 0.799805 10.887V21.1126C0.799805 21.7845 1.06671 22.4289 1.5418 22.904L9.09565 30.4578C9.57074 30.9329 10.2151 31.1998 10.887 31.1998H21.1126C21.7845 31.1998 22.4289 30.9329 22.904 30.4578L30.4578 22.904C30.9329 22.4289 31.1998 21.7845 31.1998 21.1126V10.887C31.1998 10.2151 30.9329 9.57074 30.4578 9.09565L22.904 1.5418ZM14.2843 3.40746C14.2843 2.96774 13.9279 2.61127 13.4882 2.61127H12.7282C12.2884 2.61127 11.932 2.96774 11.932 3.40746V13.8187C11.932 14.2585 12.2884 14.6149 12.7282 14.6149H13.4882C13.9279 14.6149 14.2843 14.2585 14.2843 13.8187V3.40746ZM17.5104 16.1524C17.1995 16.4634 16.6954 16.4634 16.3844 16.1524L15.847 15.615C15.5361 15.3041 15.5361 14.8 15.847 14.4891L24.0133 6.32277C24.3243 6.01184 24.8284 6.01184 25.1393 6.32277L25.6767 6.86017C25.9877 7.1711 25.9877 7.67522 25.6767 7.98615L17.5104 16.1524ZM18.1933 20.0712C17.7536 20.0712 17.3971 19.7148 17.3971 19.275V18.515C17.3971 18.0753 17.7536 17.7189 18.1933 17.7189H28.5929C29.0326 17.7189 29.3891 18.0753 29.3891 18.515V19.275C29.3891 19.7148 29.0326 20.0712 28.5929 20.0712H18.1933ZM15.8568 23.3099C15.5455 22.999 15.5452 22.4945 15.8564 22.1834L16.3933 21.6465C16.7042 21.3355 17.2083 21.3355 17.5193 21.6465L22.7803 26.9075C23.0921 27.2193 23.0911 27.725 22.7783 28.0356L22.2439 28.5661C21.9329 28.8749 21.4307 28.8742 21.1205 28.5645L15.8568 23.3099ZM11.9283 23.989C11.9283 23.5493 12.2847 23.1928 12.7244 23.1928H13.4844C13.9242 23.1928 14.2806 23.5493 14.2806 23.989V28.5939C14.2806 29.0336 13.9242 29.3901 13.4844 29.3901H12.7244C12.2847 29.3901 11.9283 29.0336 11.9283 28.5939V23.989ZM8.69334 21.6428C9.00427 21.3318 9.50839 21.3318 9.81932 21.6428L10.3567 22.1802C10.6677 22.4911 10.6677 22.9952 10.3567 23.3062L7.98515 25.6777C7.67422 25.9887 7.1701 25.9887 6.85916 25.6777L6.32176 25.1403C6.01083 24.8294 6.01083 24.3253 6.32176 24.0143L8.69334 21.6428ZM8.023 17.7189C8.46273 17.7189 8.81919 18.0753 8.81919 18.515V19.275C8.81919 19.7148 8.46273 20.0712 8.023 20.0712H3.40646C2.96673 20.0712 2.61027 19.7148 2.61027 19.275V18.515C2.61027 18.0753 2.96673 17.7189 3.40646 17.7189H8.023ZM10.3656 14.4928C10.6765 14.8037 10.6765 15.3078 10.3656 15.6188L9.82739 16.1569C9.51676 16.4676 9.01323 16.4679 8.70217 16.1577L3.42116 10.891C3.10969 10.5804 3.10914 10.076 3.41993 9.76471L3.96481 9.21893C4.27567 8.90756 4.78014 8.90736 5.09126 9.21847L10.3656 14.4928ZM14.8056 17.9906C14.8056 17.5508 14.4491 17.1944 14.0094 17.1944H12.1997C11.76 17.1944 11.4035 17.5508 11.4035 17.9906V19.8002C11.4035 20.24 11.76 20.5964 12.1997 20.5964H14.0094C14.4491 20.5964 14.8056 20.24 14.8056 19.8002V17.9906Z"
        fill="white" />
</svg>