<svg width="24" height="24" viewBox="0 0 24 24" fill="none" xmlns="http://www.w3.org/2000/svg">
    <path
        d="M0.703125 14.1094C0.314484 14.1094 0 13.7949 0 13.4062V10.5938C0 10.2051 0.314484 9.89062 0.703125 9.89062C1.09177 9.89062 1.40625 10.2051 1.40625 10.5938V13.4062C1.40625 13.7949 1.09177 14.1094 0.703125 14.1094Z"
        fill="#2F2F2F" />
    <path
        d="M3.5625 15.5156C3.17386 15.5156 2.85938 15.2011 2.85938 14.8125V9.1875C2.85938 8.79886 3.17386 8.48438 3.5625 8.48438C3.95114 8.48438 4.26562 8.79886 4.26562 9.1875V14.8125C4.26562 15.2011 3.95114 15.5156 3.5625 15.5156Z"
        fill="#2F2F2F" />
    <path
        d="M6.375 16.9219C5.98636 16.9219 5.67188 16.6074 5.67188 16.2188V7.78125C5.67188 7.39261 5.98636 7.07812 6.375 7.07812C6.76364 7.07812 7.07812 7.39261 7.07812 7.78125V16.2188C7.07812 16.6074 6.76364 16.9219 6.375 16.9219Z"
        fill="#2F2F2F" />
    <path
        d="M9.1875 19.7344C8.79886 19.7344 8.48438 19.4199 8.48438 19.0312V4.96875C8.48438 4.58011 8.79886 4.26562 9.1875 4.26562C9.57614 4.26562 9.89062 4.58011 9.89062 4.96875V19.0312C9.89062 19.4199 9.57614 19.7344 9.1875 19.7344Z"
        fill="#2F2F2F" />
    <path
        d="M12 22.5469C11.6114 22.5469 11.2969 22.2324 11.2969 21.8438V2.15625C11.2969 1.76761 11.6114 1.45312 12 1.45312C12.3886 1.45312 12.7031 1.76761 12.7031 2.15625V21.8438C12.7031 22.2324 12.3886 22.5469 12 22.5469Z"
        fill="#2F2F2F" />
    <path
        d="M14.8125 19.7344C14.4239 19.7344 14.1094 19.4199 14.1094 19.0312V4.96875C14.1094 4.58011 14.4239 4.26562 14.8125 4.26562C15.2011 4.26562 15.5156 4.58011 15.5156 4.96875V19.0312C15.5156 19.4199 15.2011 19.7344 14.8125 19.7344Z"
        fill="#2F2F2F" />
    <path
        d="M17.625 16.9219C17.2364 16.9219 16.9219 16.6074 16.9219 16.2188V7.78125C16.9219 7.39261 17.2364 7.07812 17.625 7.07812C18.0136 7.07812 18.3281 7.39261 18.3281 7.78125V16.2188C18.3281 16.6074 18.0136 16.9219 17.625 16.9219Z"
        fill="#2F2F2F" />
    <path
        d="M20.4375 15.5156C20.0489 15.5156 19.7344 15.2011 19.7344 14.8125V9.1875C19.7344 8.79886 20.0489 8.48438 20.4375 8.48438C20.8261 8.48438 21.1406 8.79886 21.1406 9.1875V14.8125C21.1406 15.2011 20.8261 15.5156 20.4375 15.5156Z"
        fill="#2F2F2F" />
    <path
        d="M23.2969 14.1094C22.9082 14.1094 22.5938 13.7949 22.5938 13.4062V10.5938C22.5938 10.2051 22.9082 9.89062 23.2969 9.89062C23.6855 9.89062 24 10.2051 24 10.5938V13.4062C24 13.7949 23.6855 14.1094 23.2969 14.1094Z"
        fill="#2F2F2F" />
</svg>