<svg width="80" height="80" viewBox="0 0 80 80" fill="none" xmlns="http://www.w3.org/2000/svg">
    <g filter="url(#filter0_ii_3013_20377)">
        <path
            d="M74 40C74 58.7777 58.7777 74 40 74C21.2223 74 6 58.7777 6 40C6 21.2223 21.2223 6 40 6C58.7777 6 74 21.2223 74 40Z"
            fill="white" fill-opacity="0.1" />
    </g>
    <path fill-rule="evenodd" clip-rule="evenodd"
        d="M28 41V38C28 37.4477 27.5523 37 27 37C26.4477 37 26 37.4477 26 38V42C26 42.5523 26.4477 43 27 43H53C53.069 43 53.1364 42.993 53.2015 42.9797C53.6572 42.8864 54 42.4832 54 42C54 41.9993 54 41.9987 54 41.998V38C54 37.4477 53.5523 37 53 37C52.4477 37 52 37.4477 52 38V41H28Z"
        fill="white" />
    <defs>
        <filter id="filter0_ii_3013_20377" x="-4" y="-4" width="78" height="78" filterUnits="userSpaceOnUse"
            color-interpolation-filters="sRGB">
            <feFlood flood-opacity="0" result="BackgroundImageFix" />
            <feBlend mode="normal" in="SourceGraphic" in2="BackgroundImageFix" result="shape" />
            <feColorMatrix in="SourceAlpha" type="matrix" values="0 0 0 0 0 0 0 0 0 0 0 0 0 0 0 0 0 0 127 0"
                result="hardAlpha" />
            <feOffset />
            <feGaussianBlur stdDeviation="5" />
            <feComposite in2="hardAlpha" operator="arithmetic" k2="-1" k3="1" />
            <feColorMatrix type="matrix" values="0 0 0 0 1 0 0 0 0 1 0 0 0 0 1 0 0 0 0.16 0" />
            <feBlend mode="normal" in2="shape" result="effect1_innerShadow_3013_20377" />
            <feColorMatrix in="SourceAlpha" type="matrix" values="0 0 0 0 0 0 0 0 0 0 0 0 0 0 0 0 0 0 127 0"
                result="hardAlpha" />
            <feOffset dx="-10" dy="-10" />
            <feGaussianBlur stdDeviation="7.5" />
            <feComposite in2="hardAlpha" operator="arithmetic" k2="-1" k3="1" />
            <feColorMatrix type="matrix" values="0 0 0 0 1 0 0 0 0 1 0 0 0 0 1 0 0 0 0.1 0" />
            <feBlend mode="normal" in2="effect1_innerShadow_3013_20377" result="effect2_innerShadow_3013_20377" />
        </filter>
    </defs>
</svg>