<svg width="25" height="24" viewBox="0 0 25 24" fill="none" xmlns="http://www.w3.org/2000/svg">
    <path fill-rule="evenodd" clip-rule="evenodd"
        d="M13.3848 22.085C13.5078 22.2021 13.6543 22.2607 13.8242 22.2607C14 22.2607 14.1465 22.2021 14.2637 22.085C14.3867 21.9736 14.4629 21.8301 14.4922 21.6543C14.6211 20.7227 14.7617 19.9346 14.9141 19.29C15.0723 18.6514 15.2744 18.127 15.5205 17.7168C15.7666 17.3008 16.0918 16.9727 16.4961 16.7324C16.9062 16.4863 17.4219 16.293 18.043 16.1523C18.6699 16.0059 19.4375 15.8828 20.3457 15.7832C20.5332 15.7656 20.6855 15.6924 20.8027 15.5635C20.9199 15.4346 20.9785 15.2822 20.9785 15.1064C20.9785 14.9365 20.9199 14.79 20.8027 14.667C20.6855 14.5381 20.5361 14.459 20.3545 14.4297C19.4404 14.3184 18.6729 14.1924 18.0518 14.0518C17.4365 13.9053 16.9268 13.709 16.5225 13.4629C16.124 13.2168 15.7988 12.8916 15.5469 12.4873C15.3008 12.0771 15.0986 11.5557 14.9404 10.9229C14.7822 10.2842 14.6328 9.49609 14.4922 8.55859C14.4629 8.38281 14.3867 8.23926 14.2637 8.12793C14.1406 8.0166 13.9941 7.96094 13.8242 7.96094C13.6543 7.96094 13.5078 8.0166 13.3848 8.12793C13.2617 8.23926 13.1855 8.38281 13.1562 8.55859C13.0273 9.49609 12.8867 10.2842 12.7344 10.9229C12.582 11.5615 12.3799 12.0859 12.1279 12.4961C11.876 12.9062 11.5479 13.2373 11.1436 13.4893C10.7393 13.7354 10.2236 13.9287 9.59668 14.0693C8.97559 14.21 8.21094 14.3301 7.30273 14.4297C7.11523 14.4531 6.96289 14.5293 6.8457 14.6582C6.72852 14.7812 6.66992 14.9307 6.66992 15.1064C6.66992 15.2822 6.72852 15.4346 6.8457 15.5635C6.96289 15.6865 7.1123 15.7598 7.29395 15.7832C8.20801 15.9062 8.97266 16.0439 9.58789 16.1963C10.209 16.3428 10.7188 16.5391 11.1172 16.7852C11.5156 17.0254 11.8379 17.3477 12.084 17.752C12.3359 18.1562 12.541 18.6748 12.6992 19.3076C12.8574 19.9404 13.0098 20.7227 13.1562 21.6543C13.1855 21.8301 13.2617 21.9736 13.3848 22.085ZM7.13574 12.1006C7.16504 12.3525 7.29688 12.4785 7.53125 12.4785C7.63672 12.4785 7.72461 12.4463 7.79492 12.3818C7.87109 12.3115 7.91504 12.2236 7.92676 12.1182C8.00293 11.5439 8.0791 11.0957 8.15527 10.7734C8.23145 10.4512 8.35156 10.208 8.51562 10.0439C8.68555 9.87988 8.94043 9.75391 9.28027 9.66602C9.62012 9.57227 10.0947 9.47266 10.7041 9.36719C10.9326 9.32031 11.0469 9.18848 11.0469 8.97168C11.0469 8.86621 11.0117 8.77832 10.9414 8.70801C10.877 8.63184 10.7949 8.58789 10.6953 8.57617C10.0918 8.49414 9.62012 8.41504 9.28027 8.33887C8.94043 8.25684 8.68555 8.13379 8.51562 7.96973C8.35156 7.7998 8.23145 7.54785 8.15527 7.21387C8.0791 6.87988 8.00293 6.41699 7.92676 5.8252C7.89746 5.58496 7.76562 5.46484 7.53125 5.46484C7.29688 5.46484 7.16504 5.59082 7.13574 5.84277C7.06543 6.41113 6.99219 6.85645 6.91602 7.17871C6.83984 7.49512 6.7168 7.73535 6.54688 7.89941C6.37695 8.06348 6.11914 8.18945 5.77344 8.27734C5.43359 8.36523 4.96484 8.46484 4.36719 8.57617C4.13281 8.61719 4.01562 8.74902 4.01562 8.97168C4.01562 9.19434 4.14746 9.32617 4.41113 9.36719C5.00293 9.45508 5.46582 9.54297 5.7998 9.63086C6.13379 9.71289 6.38574 9.83887 6.55566 10.0088C6.72559 10.1729 6.8457 10.4189 6.91602 10.7471C6.99219 11.0752 7.06543 11.5264 7.13574 12.1006ZM11.5566 5.93945C11.5801 6.0918 11.665 6.16797 11.8115 6.16797C11.9521 6.16797 12.0342 6.09473 12.0576 5.94824C12.1162 5.59668 12.1689 5.32129 12.2158 5.12207C12.2686 4.92285 12.3447 4.77051 12.4443 4.66504C12.5439 4.55957 12.6963 4.47754 12.9014 4.41895C13.1123 4.36035 13.4082 4.2959 13.7891 4.22559C13.9355 4.19629 14.0088 4.11133 14.0088 3.9707C14.0088 3.83008 13.9326 3.74512 13.7803 3.71582C13.4053 3.65723 13.1123 3.60156 12.9014 3.54883C12.6963 3.49023 12.541 3.41113 12.4355 3.31152C12.3359 3.20605 12.2627 3.05078 12.2158 2.8457C12.1689 2.64062 12.1162 2.35938 12.0576 2.00195C12.0342 1.84961 11.9521 1.77344 11.8115 1.77344C11.665 1.77344 11.5801 1.85254 11.5566 2.01074C11.498 2.35645 11.4453 2.62891 11.3984 2.82812C11.3574 3.02734 11.2842 3.17969 11.1787 3.28516C11.0791 3.38477 10.9238 3.46387 10.7129 3.52246C10.502 3.58105 10.209 3.64551 9.83398 3.71582C9.68164 3.75098 9.60547 3.83594 9.60547 3.9707C9.60547 4.11133 9.68457 4.19629 9.84277 4.22559C10.2178 4.29004 10.5078 4.35156 10.7129 4.41016C10.918 4.46289 11.0703 4.54199 11.1699 4.64746C11.2754 4.75293 11.3516 4.90527 11.3984 5.10449C11.4453 5.30371 11.498 5.58203 11.5566 5.93945Z"
        fill="white" />
</svg>