<svg width="24" height="24" viewBox="0 0 24 24" fill="none" xmlns="http://www.w3.org/2000/svg">
    <path fill-rule="evenodd" clip-rule="evenodd"
        d="M6.83203 11.6543C6.79102 11.7598 6.77051 11.874 6.77051 11.9971C6.77051 12.1201 6.79102 12.2373 6.83203 12.3486C6.87891 12.4541 6.95215 12.5537 7.05176 12.6475L13.5908 19.0371C13.7549 19.207 13.957 19.292 14.1973 19.292C14.3613 19.292 14.5078 19.2539 14.6367 19.1777C14.7715 19.1016 14.877 18.9961 14.9531 18.8613C15.0352 18.7324 15.0762 18.5859 15.0762 18.4219C15.0762 18.1875 14.9883 17.9824 14.8125 17.8066L8.87109 11.9971L14.8125 6.1875C14.9883 6.01172 15.0762 5.80664 15.0762 5.57227C15.0762 5.40234 15.0352 5.25293 14.9531 5.12402C14.877 4.99512 14.7715 4.89258 14.6367 4.81641C14.5078 4.74023 14.3613 4.70215 14.1973 4.70215C13.957 4.70215 13.7549 4.78711 13.5908 4.95703L7.05176 11.3467C6.95215 11.4404 6.87891 11.543 6.83203 11.6543Z"
        fill="black" />
</svg>