<svg width="24" height="24" viewBox="0 0 24 24" fill="none" xmlns="http://www.w3.org/2000/svg">
    <path
        d="M0.735352 19.7344C0.346711 19.7344 0.0322266 19.4199 0.0322266 19.0312V4.96875C0.0322266 4.58011 0.346711 4.26562 0.735352 4.26562C1.12399 4.26562 1.43848 4.58011 1.43848 4.96875V19.0312C1.43848 19.4199 1.12399 19.7344 0.735352 19.7344Z"
        fill="#2F2F2F" />
    <path
        d="M3.55176 19.7344C3.16312 19.7344 2.84863 19.4199 2.84863 19.0312V4.96875C2.84863 4.58011 3.16312 4.26562 3.55176 4.26562C3.9404 4.26562 4.25488 4.58011 4.25488 4.96875V19.0312C4.25488 19.4199 3.9404 19.7344 3.55176 19.7344Z"
        fill="#2F2F2F" />
    <path
        d="M6.36768 19.7344C5.97904 19.7344 5.66455 19.4199 5.66455 19.0312V4.96875C5.66455 4.58011 5.97904 4.26562 6.36768 4.26562C6.75632 4.26562 7.0708 4.58011 7.0708 4.96875V19.0312C7.0708 19.4199 6.75632 19.7344 6.36768 19.7344Z"
        fill="#2F2F2F" />
    <path
        d="M9.18359 19.7344C8.79495 19.7344 8.48047 19.4199 8.48047 19.0312V4.96875C8.48047 4.58011 8.79495 4.26562 9.18359 4.26562C9.57223 4.26562 9.88672 4.58011 9.88672 4.96875V19.0312C9.88672 19.4199 9.57223 19.7344 9.18359 19.7344Z"
        fill="#2F2F2F" />
    <path
        d="M12 19.7344C11.6114 19.7344 11.2969 19.4199 11.2969 19.0312V4.96875C11.2969 4.58011 11.6114 4.26562 12 4.26562C12.3886 4.26562 12.7031 4.58011 12.7031 4.96875V19.0312C12.7031 19.4199 12.3886 19.7344 12 19.7344Z"
        fill="#2F2F2F" />
    <path
        d="M14.8164 19.7344C14.4278 19.7344 14.1133 19.4199 14.1133 19.0312V4.96875C14.1133 4.58011 14.4278 4.26562 14.8164 4.26562C15.205 4.26562 15.5195 4.58011 15.5195 4.96875V19.0312C15.5195 19.4199 15.205 19.7344 14.8164 19.7344Z"
        fill="#2F2F2F" />
    <path
        d="M17.6323 19.7344C17.2437 19.7344 16.9292 19.4199 16.9292 19.0312V4.96875C16.9292 4.58011 17.2437 4.26562 17.6323 4.26562C18.021 4.26562 18.3354 4.58011 18.3354 4.96875V19.0312C18.3354 19.4199 18.021 19.7344 17.6323 19.7344Z"
        fill="#2F2F2F" />
    <path
        d="M20.4482 19.7344C20.0596 19.7344 19.7451 19.4199 19.7451 19.0312V4.96875C19.7451 4.58011 20.0596 4.26562 20.4482 4.26562C20.8369 4.26562 21.1514 4.58011 21.1514 4.96875V19.0312C21.1514 19.4199 20.8369 19.7344 20.4482 19.7344Z"
        fill="#2F2F2F" />
    <path
        d="M23.2646 19.7344C22.876 19.7344 22.5615 19.4199 22.5615 19.0312V4.96875C22.5615 4.58011 22.876 4.26562 23.2646 4.26562C23.6533 4.26562 23.9678 4.58011 23.9678 4.96875V19.0312C23.9678 19.4199 23.6533 19.7344 23.2646 19.7344Z"
        fill="#2F2F2F" />
</svg>