<svg viewBox="0 0 304 246" fill="none">
    <ellipse opacity="0.2" cx="156.166" cy="208.807" rx="146.979" ry="36.6494" fill="#424242" />
    <path
        d="M63.5033 53.4173L66.3273 67.1101H251.114L253.938 53.4173L266.004 38.8764V0.20459H51.4375V38.8764L63.5033 53.4173Z"
        fill="#CCCCCC" />
    <path fill-rule="evenodd" clip-rule="evenodd"
        d="M65.0645 6.11914H247.27V42.8609L236.563 56.5921V67.1153H224.666V52.751L235.373 39.0198V17.6065H76.9611V39.0682L87.3334 52.7994V67.1153H75.4368V56.5437L65.0645 42.8125V6.11914Z"
        fill="#EDEDED" />
    <rect x="70.8379" y="67.1152" width="54.8248" height="20.251" fill="#949494" />
    <path
        d="M8.4247 77.667L80.6868 84.8933C82.2634 89.6233 81.4532 95.623 80.6868 98.0316L8.4247 106.9C6.34441 105.586 1.0484 100.493 0.861007 92.7647C0.677962 85.2157 3.86732 80.2131 8.4247 77.667Z"
        fill="#EDEDED" />
    <path d="M87.7756 84.0264H120.209V103.287H87.7756V84.0264Z" fill="#949494" />
    <path d="M75.4902 84.0264H87.7756V103.287H75.4902V84.0264Z" fill="#949494" />
    <path d="M52.6406 178.997L61.3997 160.394H165.282H246.394L255.153 178.997H141.323H52.6406Z" fill="#EDEDED" />
    <rect x="92.4766" y="99.8276" width="8.1627" height="10.3979" fill="#949494" />
    <path d="M131.566 67.1152H189.684V167.402H131.566V67.1152Z" fill="#CCCCCC" />
    <ellipse cx="213.448" cy="105.943" rx="5.58862" ry="7.83643" fill="#C0854E" />
    <path
        d="M213.605 98.4023C212.606 99.1111 210.779 100.942 211.491 103.883C212.336 107.379 216.45 108.56 213.241 113.56"
        stroke="#E3AD7A" />
    <ellipse cx="5.58862" cy="7.83643" rx="5.58862" ry="7.83643"
        transform="matrix(-0.981547 0.19122 0.19122 0.981547 203.805 88.418)" fill="#C0854E" />
    <path
        d="M198.222 89.807C199.339 90.3116 201.481 91.7591 201.346 94.7823C201.184 98.3758 197.372 100.322 201.478 104.615"
        stroke="#E3AD7A" />
    <ellipse cx="5.23786" cy="7.34459" rx="5.23786" ry="7.34459"
        transform="matrix(-0.981547 0.19122 0.19122 0.981547 201.59 137.522)" fill="#C0854E" />
    <path
        d="M196.357 138.824C197.403 139.297 199.411 140.653 199.284 143.487C199.132 146.855 195.56 148.678 199.408 152.702"
        stroke="#E3AD7A" />
    <ellipse cx="229.232" cy="140.714" rx="3.99216" ry="5.85498" transform="rotate(15.9447 229.232 140.714)"
        fill="#C0854E" />
    <path
        d="M230.888 135.327C230.057 135.64 228.427 136.597 228.311 138.85C228.175 141.527 230.758 143.183 227.528 146.145"
        stroke="#E3AD7A" />
    <ellipse cx="5.96024" cy="8.35531" rx="5.96024" ry="8.35531"
        transform="matrix(-0.961527 0.274709 0.274709 0.961527 204.439 117.44)" fill="#C0854E" />
    <path
        d="M198.634 119.427C199.867 119.861 202.276 121.202 202.408 124.426C202.564 128.258 198.692 130.674 203.447 134.859"
        stroke="#E3AD7A" />
    <ellipse cx="5.09202" cy="7.13821" rx="5.09202" ry="7.13821"
        transform="matrix(-0.961527 0.274709 0.274709 0.961527 220.188 121.485)" fill="#C0854E" />
    <path
        d="M215.228 123.182C216.281 123.553 218.339 124.699 218.452 127.453C218.586 130.727 215.277 132.791 219.34 136.367"
        stroke="#E3AD7A" />
    <ellipse cx="5.52311" cy="8.35531" rx="5.52311" ry="8.35531"
        transform="matrix(-0.923483 -0.383638 -0.383638 0.923483 236.443 109.253)" fill="#C0854E" />
    <path
        d="M231.078 107.366C231.7 108.442 232.619 110.937 230.766 113.564C228.564 116.686 224.326 116.289 225.211 122.428"
        stroke="#E3AD7A" />
    <ellipse cx="4.56976" cy="6.91309" rx="4.56976" ry="6.91309"
        transform="matrix(-0.923483 -0.383638 -0.383638 0.923483 219.766 147.309)" fill="#C0854E" />
    <path
        d="M215.327 145.748C215.842 146.639 216.602 148.703 215.069 150.876C213.247 153.459 209.741 153.131 210.472 158.21"
        stroke="#E3AD7A" />
    <ellipse cx="6.14758" cy="9.29999" rx="6.14758" ry="9.29999"
        transform="matrix(-0.992704 -0.120574 -0.120574 0.992704 235.541 80.5366)" fill="#C0854E" />
    <path
        d="M229.225 80.1231C230.215 81.0906 231.947 83.4894 230.75 86.8603C229.326 90.8671 224.665 91.7131 227.454 98.0282"
        stroke="#E3AD7A" />
    <path d="M243.541 67.1152H189.684V160.443H234.098L243.541 67.1152Z" fill="#F7C78F" fill-opacity="0.2" />
    <path
        d="M61.3184 159.157C61.3184 154.604 65.0097 150.913 69.5631 150.913H131.566V167.402H69.5631C65.0097 167.402 61.3184 163.711 61.3184 159.157Z"
        fill="#949494" />
    <rect x="52.6406" y="178.997" width="202.512" height="22.3899" fill="#CCCCCC" />
    <path d="M198.051 201.387H243.54L235.433 218.365H206.773L198.051 201.387Z" fill="#949494" />
    <path d="M70.8379 201.387H116.327L108.22 218.365H79.5604L70.8379 201.387Z" fill="#949494" />
    <path
        d="M121.538 121.117C121.538 124.192 109.942 126.684 95.6374 126.684C81.3327 126.684 69.7364 124.192 69.7364 121.117C69.7364 118.042 81.3327 115.55 95.6374 115.55C109.942 115.55 121.538 118.042 121.538 121.117Z"
        fill="#D6C3FF" />
    <path
        d="M121.538 121.117C121.538 124.192 109.942 126.684 95.6374 126.684C81.3327 126.684 69.7364 124.192 69.7364 121.117C68.1617 130.777 71.2328 149.32 79.1492 158.131C81.1794 160.688 87.4757 162.613 95.6374 162.613C102.653 162.613 108.665 161.189 111.183 159.167C121.159 150.354 123.113 130.777 121.538 121.117Z"
        fill="#D6C3FF" />
    <path fill-rule="evenodd" clip-rule="evenodd"
        d="M65.2909 127.435C67.5945 126.86 69.8138 127.076 70.8871 127.344L69.8511 131.482C69.3658 131.361 67.8628 131.19 66.3245 131.574C64.864 131.939 63.5555 132.741 62.8627 134.44C62.1481 136.192 62.3314 138.779 63.9122 140.878C65.4231 142.885 68.4059 144.667 73.6767 144.382L73.9069 148.642C67.5074 148.988 63.0315 146.8 60.5046 143.444C58.0477 140.181 57.6142 136.014 58.9129 132.829C60.2567 129.534 62.9095 128.03 65.2909 127.435Z"
        fill="#D6C3FF" />
</svg>