<svg viewBox="0 0 282 418" fill="none">
    <ellipse opacity="0.2" cx="136.361" cy="381.331" rx="135.811" ry="36.125" fill="#424242" />
    <path fill-rule="evenodd" clip-rule="evenodd"
        d="M82.3787 406.735L107.602 406.734L133.337 256.2H172.768H187.042H230.485L256.221 406.734L281.444 406.735L242.477 256.2H273.711L281.448 242.656L264.211 242.369L275.84 23.083L85.6668 29.2903L90.5828 239.473L65.1562 239.049L70.9598 256.2H121.345L82.3787 406.735Z"
        fill="#E1C592" />
    <path d="M166.897 350.815H194.611L187.042 256.2H172.768L166.897 350.815Z" fill="#CFA453" />
    <mask id="mask0_3001_20105" style="mask-type:alpha" maskUnits="userSpaceOnUse" x="65" y="23" width="217"
        height="384">
        <path fill-rule="evenodd" clip-rule="evenodd"
            d="M82.3787 406.735L107.602 406.734L133.337 256.2H172.768H187.042H230.485L256.221 406.734L281.444 406.735L242.477 256.2H273.711L281.448 242.656L264.211 242.369L275.84 23.083L85.6668 29.2903L90.5828 239.473L65.1562 239.049L70.9598 256.2H121.345L82.3787 406.735Z"
            fill="#E1C592" />
        <path d="M166.897 350.815H194.611L187.042 256.2H172.768L166.897 350.815Z" fill="#CFA453" />
    </mask>
    <g mask="url(#mask0_3001_20105)">
        <path
            d="M249.78 345.01L233.223 254.946L216.414 255.198L244.763 416.007L290.422 408.481L259.313 399.701L257.306 346.766L249.78 345.01Z"
            fill="#CFA453" />
        <path
            d="M102.984 347.856L121.89 256.043L113.176 253.005L68.8867 385.482L70.0609 423.109L117.094 409.391L92.0107 401.552L111.121 341.022L102.984 347.856Z"
            fill="#CFA453" />
        <path
            d="M77.2753 239.055L64.8047 238.677L70.2957 256.216L273.747 256.217L276.375 254.24L83.1316 251.336L77.2753 239.055Z"
            fill="#CFA453" />
    </g>
    <path
        d="M95.9156 32.5169L84.4227 30.7191L77.8633 27.8732L89.1893 20.7002L131.284 26.1743L143.396 232.458L109.278 231.889L105.597 58.0582L95.3626 60.3214C99.768 49.7241 98.2135 36.5287 95.9156 32.5169Z"
        fill="#CFA453" />
    <path d="M255.035 30.4131L106.473 31.7802L115.416 232.063L238.415 233.504L255.035 30.4131Z" fill="#F5EEF7" />
    <mask id="mask1_3001_20105" style="mask-type:alpha" maskUnits="userSpaceOnUse" x="106" y="30" width="150"
        height="204">
        <path d="M255.031 30.4111L106.469 31.7782L115.412 232.061L238.412 233.502L255.031 30.4111Z" fill="#F5EEF7" />
    </mask>
    <g mask="url(#mask1_3001_20105)">
        <path d="M258.908 43.0725L103.988 77.3946L106.929 33.9305L262.616 25.1963L258.908 43.0725Z" fill="#EBDCEF" />
    </g>
    <path d="M125.105 86.8408L130.699 211.602L227.488 209.364" stroke="#775BB4" stroke-width="3" stroke-linecap="round"
        stroke-linejoin="round" />
    <path
        d="M130.816 211.544L147.266 178.159L165.169 187.352L173.394 130.743L189.845 145.258L212.585 121.55L215.488 94.4556L232.422 100.745L241.131 81.876M241.131 81.876L230.903 86.1884M241.131 81.876L243.768 89.9405"
        stroke="#775BB4" stroke-width="3" stroke-linecap="round" stroke-linejoin="round" />
    <path
        d="M263.826 40.8293L100.132 57.3827C100.893 53.1229 101.684 42.0472 98.7626 31.8234C98.5691 31.1462 98.1223 29.9131 97.7472 28.912L85.7282 29.2897L89.4156 188.64C59.1431 195.247 13.955 187.819 3.82812 182.897C7.93583 179.398 19.931 159.871 38.4827 112.549C52.7158 76.2434 63.6184 19.6523 61.3363 1.24355C59.4023 -2.77365 254.018 11.6666 262.758 15.1865C271.497 18.7065 268.463 40.0695 263.826 40.8293Z"
        fill="#F5EEF7" />
    <mask id="mask2_3001_20105" style="mask-type:alpha" maskUnits="userSpaceOnUse" x="3" y="0" width="266" height="192">
        <path
            d="M263.826 40.8293L100.132 57.3827C100.893 53.1229 101.684 42.0472 98.7626 31.8234C98.5691 31.1462 98.1223 29.9131 97.7472 28.912L85.7282 29.2897L89.4156 188.64C59.1431 195.247 13.955 187.819 3.82812 182.897C7.93583 179.398 19.931 159.871 38.4827 112.549C52.7158 76.2434 63.6184 19.6523 61.3363 1.24355C59.4023 -2.77365 254.018 11.6666 262.758 15.1865C271.497 18.7065 268.463 40.0695 263.826 40.8293Z"
            fill="#F5EEF7" />
    </mask>
    <g mask="url(#mask2_3001_20105)">
        <path
            d="M98.0444 29.603C95.3461 20.4803 88.9368 16.3418 86.4908 15.6661C85.1139 15.3155 78.6801 20.0249 78.4004 20.9109C76.0445 28.3736 82.5725 175.025 76.4437 178.755C71.5406 181.74 44.4921 190.275 -0.0664062 183.32L35.3631 211.794L76.5323 204.714L95.0034 187.849L86.0083 29.4796L98.0444 29.603Z"
            fill="#EBDCEF" />
    </g>
</svg>