<svg viewBox="0 0 514 250" fill="none" xmlns="http://www.w3.org/2000/svg">
    <ellipse opacity="0.2" cx="206.111" cy="217.974" rx="205.785" ry="31.4824" fill="#424242" />
    <path
        d="M437.113 115.84C444.056 115.028 457.055 113.846 476.11 105.426C491.704 98.5353 511.341 77.0645 513.335 77.5077C515.329 77.9508 508.239 128.47 498.49 143.094C492.829 151.584 477.758 159.851 461.949 165.335C450.529 169.296 438.723 171.806 429.801 171.899C412.784 172.076 403.36 170.643 400.775 169.905C406.684 166.138 422.113 155.371 428.693 143.759C436.227 130.465 436.891 123.374 437.113 115.84Z"
        fill="#F5EEF7" />
    <mask id="mask0_3001_20263" style="mask-type:alpha" maskUnits="userSpaceOnUse" x="400" y="77" width="114"
        height="95">
        <path
            d="M437.113 115.84C444.056 115.028 457.055 113.846 476.11 105.426C491.704 98.5353 511.341 77.0645 513.335 77.5077C515.329 77.9508 508.239 128.47 498.49 143.094C492.829 151.584 477.758 159.851 461.949 165.335C450.529 169.296 438.723 171.806 429.801 171.899C412.784 172.076 403.36 170.643 400.775 169.905C406.684 166.138 422.113 155.371 428.693 143.759C436.227 130.465 436.891 123.374 437.113 115.84Z"
            fill="#F5EEF7" />
    </mask>
    <g mask="url(#mask0_3001_20263)">
        <path
            d="M481.281 139.956C478.65 147.274 467.33 161.41 462.053 165.282L457.736 169.292L490.834 169.085C495.597 159.183 506.899 139.32 501.39 142.362C495.88 145.405 484.719 143.05 481.281 139.956Z"
            fill="#D1B3DB" />
    </g>
    <path
        d="M241.158 217.013C245.269 217.013 280.132 204.515 281.119 203.199C282.105 201.884 277.994 195.306 279.803 190.208C281.44 185.595 281.057 170.881 280.969 167.516L280.963 167.275C280.958 167.058 280.954 166.915 280.954 166.857C280.954 166.199 256.945 172.722 244.94 176.066C244.593 182.878 243.853 194.711 242.922 204.236C242.385 209.733 241.784 214.462 241.158 217.013Z"
        fill="#E2CEE8" />
    <path
        d="M162.223 194.155C128.15 193.102 104.173 195.69 96.4443 197.115C94.1421 197.992 89.6033 200.009 89.8665 201.062C90.0037 201.611 91.572 203.562 93.3654 205.793C95.8707 208.91 98.8152 212.574 98.9111 213.724C99.0755 215.697 237.047 217.013 241.158 217.013C241.784 214.462 242.385 209.733 242.922 204.236L236.553 202.542C225.974 200.185 196.297 195.207 162.223 194.155Z"
        fill="#D1B3DB" />
    <path fill-rule="evenodd" clip-rule="evenodd"
        d="M146.424 166.605L113.255 164.845C110.118 166.612 103.144 176.636 104.643 189.287C110.079 183.383 114.505 179.489 124.698 174.106C134.096 169.142 140.816 167.359 146.424 166.605Z"
        fill="#E2CEE8" />
    <path
        d="M86.0838 163.403C86.468 165.596 87.5323 171.264 88.7159 176.394C89.3997 179.359 90.5756 182.042 91.6425 184.477C92.8838 187.31 93.9776 189.806 93.9776 192.017C93.9776 195.306 95.6221 196.786 96.4443 197.115C104.173 195.69 128.15 193.102 162.223 194.155C196.297 195.207 225.974 200.185 236.553 202.542L242.922 204.236C243.853 194.711 244.593 182.878 244.94 176.066L188.37 168.83L146.424 166.605C140.816 167.359 134.096 169.142 124.698 174.106C114.505 179.489 110.079 183.383 104.643 189.287C103.144 176.636 110.118 166.612 113.255 164.845L86.0838 163.403Z"
        fill="#EDE0F0" />
    <path
        d="M301.738 159.957C301.738 158.79 285.019 157.259 276.659 156.64L253.578 155.146L177.138 168.715C187.356 169.246 231.853 180.752 248.561 187.743C272.077 168.174 301.738 161.417 301.738 159.957Z"
        fill="#D1B3DB" />
    <path fill-rule="evenodd" clip-rule="evenodd"
        d="M146.368 169.051C166.942 170.88 240.874 172.7 244.451 172.389C246.291 162.258 246.276 142.32 246.038 133.618L83.0455 137.961C82.7406 146.877 82.1306 164.982 82.1306 166.079C82.1306 166.773 93.316 167.058 107.032 167.406C120.415 167.746 136.207 168.148 146.368 169.051Z"
        fill="#F5EEF7" />
    <path
        d="M290.801 154.658C291.05 151.921 290.075 134.128 289.556 125.573L246.038 133.618C246.276 142.32 246.291 162.258 244.451 172.389C248.028 172.078 290.49 158.08 290.801 154.658Z"
        fill="#E2CEE8" />
    <path
        d="M243.466 154.217C242.274 153.492 171.369 154.051 149.744 155.303C140.157 155.876 151.856 156.612 170.928 156.339C196.958 155.966 244.956 155.124 243.466 154.217Z"
        fill="#E2CEE8" />
    <path
        d="M172.769 161.223C171.814 160.498 115.002 161.057 97.6742 162.309C89.9922 162.882 99.3659 163.617 114.648 163.345C135.505 162.972 173.964 162.129 172.769 161.223Z"
        fill="#E2CEE8" />
    <path
        d="M194.824 186.813C193.869 186.088 137.056 186.647 119.729 187.899C112.047 188.472 121.421 189.207 136.703 188.934C157.559 188.562 196.018 187.719 194.824 186.813Z"
        fill="#D1B3DB" />
    <path
        d="M217.082 178.53C216.127 177.805 159.314 178.364 141.987 179.616C134.305 180.189 143.678 180.924 158.961 180.651C179.817 180.279 218.276 179.436 217.082 178.53Z"
        fill="#D1B3DB" />
    <path
        d="M180.18 206.94C179.224 206.215 122.412 206.774 105.084 208.026C97.4024 208.599 106.776 209.334 122.058 209.061C142.915 208.689 181.374 207.846 180.18 206.94Z"
        fill="#BE94CC" />
    <path
        d="M237.378 212.213C235.924 211.489 149.416 212.047 123.032 213.299C111.334 213.872 125.608 214.608 148.878 214.335C180.636 213.963 239.197 213.12 237.378 212.213Z"
        fill="#BE94CC" />
    <path
        d="M217.086 201.667C216.335 200.942 171.689 201.5 158.072 202.752C152.035 203.325 159.402 204.061 171.411 203.788C187.801 203.416 218.024 202.573 217.086 201.667Z"
        fill="#BE94CC" />
    <path
        d="M278.595 182.527C278.069 182.078 255.047 188.282 248.23 190.99C245.211 192.204 249.165 191.804 255.335 190.043C263.755 187.639 279.252 183.089 278.595 182.527Z"
        fill="#D1B3DB" />
    <path
        d="M270.062 198.542C269.677 198.039 252.766 201.521 247.757 203.411C245.538 204.262 248.442 204.32 252.975 203.29C259.16 201.884 270.544 199.171 270.062 198.542Z"
        fill="#D1B3DB" />
    <path
        d="M280.945 138.138C280.436 137.502 256.584 141.694 249.468 144.013C246.316 145.059 250.373 145.164 256.771 143.918C265.503 142.218 281.581 138.933 280.945 138.138Z"
        fill="#BE94CC" />
    <path
        d="M290.229 151.752C289.64 151.405 261.027 158.388 252.458 161.203C248.662 162.462 253.504 161.833 261.183 159.877C271.663 157.208 290.964 152.186 290.229 151.752Z"
        fill="#BE94CC" />
    <path
        d="M189.354 151.955C177.43 145.345 165.378 141.425 160.842 140.291C180.228 134.459 219.194 125.614 219.972 136.889C220.749 148.164 211.332 160.379 206.526 165.077C205.77 163.457 201.277 158.564 189.354 151.955Z"
        fill="#D1B3DB" />
    <path
        d="M52.3337 168.867C52.3337 168.867 64.8717 155.239 87.9568 149.228C99.4566 149.459 111.255 149.768 123.088 150.024C82.2292 154.871 67.6097 162.845 52.3337 168.867Z"
        fill="#E2CEE8" />
    <path
        d="M248.808 108.454C243.425 108.454 211.995 107.003 196.953 106.277C188.03 106.57 177.051 106.928 165.368 107.308C125.361 108.608 77.0888 110.159 74.7666 110.159C72.8198 110.159 73.5677 112.095 74.6498 114.898C75.6525 117.495 76.9423 120.835 76.6416 124.067C76.2548 128.225 77.8139 129.566 79.0586 130.636C79.8253 131.295 80.4726 131.852 80.4726 132.901C80.4726 133.948 79.7852 135.682 79.0707 137.484C77.906 140.422 76.6692 143.542 78.2203 144.163C80.2914 144.991 192.4 139.736 233.795 137.796C242.42 137.392 247.975 137.131 248.826 137.1C248.631 130.556 248.355 115.665 248.808 108.454Z"
        fill="#DAC1E2" />
    <path
        d="M264.97 120.021C277.216 117.242 287.763 116.348 289.949 116.903C291.622 100.818 293.901 97.8309 296.215 94.7973C296.357 94.612 296.498 94.4265 296.64 94.2378C282.939 98.9767 254.192 108.454 248.808 108.454C248.355 115.665 248.631 130.556 248.826 137.1C252.775 136.954 272.731 131.434 282.216 128.693C278.854 123.077 269.679 120.586 264.97 120.021Z"
        fill="#F5EEF7" />
    <path
        d="M296.64 94.2378C293.8 93.3639 266.419 92.8724 253.084 92.7359L177.37 89.9443L165.368 107.308C177.051 106.928 188.03 106.57 196.953 106.277C211.995 107.003 243.425 108.454 248.808 108.454C254.192 108.454 282.939 98.9767 296.64 94.2378Z"
        fill="#E2CEE8" />
    <path
        d="M289.949 116.903C287.763 116.348 277.216 117.242 264.97 120.021C269.679 120.586 278.854 123.077 282.216 128.693C282.687 129.479 283.044 130.327 283.259 131.239C285.006 138.667 283.714 145.348 282.849 147.76C287.218 143.619 294.345 134.462 294.455 128.236C294.564 122.01 292.043 117.859 289.949 116.903Z"
        fill="#D1B3DB" />
    <path
        d="M211.266 94.1572L241 99.5223C241 99.5223 223.709 104.07 217.387 107.094C205.581 112.741 193.217 118.633 193.217 118.633L211.266 94.1572Z"
        fill="#D1B3DB" />
    <path
        d="M57.0564 119.655C63.9314 106.69 77.7638 98.5384 83.8206 96.083L92.1686 84.0518L225.496 98.293C207.817 106.641 195.786 117.936 193.085 118.673C190.384 119.409 182.281 113.516 134.156 111.552C86.0302 109.588 64.6683 119.409 57.0564 119.655Z"
        fill="#E2CEE8" />
    <path
        d="M245.559 80.6516C273.536 71.9435 290.402 69.7262 295.338 69.7061C295.245 68.8688 287.339 63.851 282.778 60.9554L282.572 60.8252L242.839 63.9735L245.559 80.6516Z"
        fill="#DAC1E2" />
    <path
        d="M244.506 100.929C247.527 100.498 291.535 87.554 294.34 86.4754C295.656 85.543 295.029 82.7368 295.029 78.0144C295.029 73.292 295.456 70.7687 295.338 69.7061C290.402 69.7262 273.536 71.9435 245.559 80.6516L244.506 100.929Z"
        fill="#D1B3DB" />
    <path
        d="M79.2478 76.9362C79.6826 84.5997 80.7137 99.9267 81.3598 99.9266C81.4498 99.9266 82.0086 99.8828 82.9938 99.8054C90.8447 99.1892 125.777 96.447 166.413 96.8304C198.098 97.1293 221.914 99.1885 234.56 100.282C240.167 100.767 243.579 101.062 244.506 100.929L245.559 80.6516L242.839 63.9735L79.2478 76.9362Z"
        fill="#F5EEF7" />
    <path
        d="M290.696 83.8841C290.098 83.4252 260.756 89.3707 251.961 92.0073C248.065 93.1899 253.024 92.8387 260.899 91.1461C271.647 88.8362 291.444 84.4578 290.696 83.8841Z"
        fill="#BE94CC" />
    <path
        d="M292.405 75.6182C291.959 75.1176 270.448 78.7889 264.012 80.7369C261.161 81.6143 264.806 81.6422 270.578 80.5608C278.455 79.085 292.963 76.2439 292.405 75.6182Z"
        fill="#BE94CC" />
    <path
        d="M237.389 86.5991C236.168 85.7798 163.57 86.4111 141.427 87.8261C131.611 88.4736 143.589 89.3046 163.118 88.9963C189.77 88.5756 238.915 87.6231 237.389 86.5991Z"
        fill="#DAC1E2" />
    <path
        d="M185.549 136.314C184.328 135.495 111.73 136.126 89.5876 137.541C79.7711 138.188 91.7494 139.019 111.278 138.711C137.93 138.29 187.075 137.338 185.549 136.314Z"
        fill="#BE94CC" />
    <path
        d="M153.578 149.321C152.749 148.596 103.487 149.155 88.4626 150.407C81.8015 150.98 89.9295 151.715 103.181 151.442C121.266 151.07 154.613 150.227 153.578 149.321Z"
        fill="#E2CEE8" />
    <path
        d="M232.683 123.109C231.975 122.29 189.884 122.921 177.047 124.336C171.355 124.983 178.3 125.814 189.622 125.506C205.074 125.085 233.567 124.133 232.683 123.109Z"
        fill="#BE94CC" />
    <path
        d="M288.232 106.461C287.642 105.75 276.299 108.354 266.386 110.09C260.595 111.34 258.129 113.021 269.598 111.021C285.054 108.327 288.97 107.349 288.232 106.461Z"
        fill="#E2CEE8" />
    <path
        d="M290.025 116.41C289.317 115.59 264.977 119.728 254.627 121.701C250.224 122.71 259.928 122.27 272.446 119.988C289.419 116.895 290.91 117.434 290.025 116.41Z"
        fill="#E2CEE8" />
    <path
        d="M155.9 116.388C155.086 115.569 106.629 116.2 91.8495 117.615C85.2974 118.263 93.2924 119.094 106.327 118.785C124.116 118.365 156.919 117.412 155.9 116.388Z"
        fill="#BE94CC" />
    <path
        d="M160.815 92.7612C159.874 91.9419 103.941 92.5732 86.8818 93.9882C79.3188 94.6357 88.5474 95.4667 103.593 95.1584C124.127 94.7377 161.99 93.7852 160.815 92.7612Z"
        fill="#DAC1E2" />
    <path
        d="M60.915 84.2051C63.0176 82.6761 74.2144 71.9407 79.5499 66.7641L220.3 51.915C225.982 60.2554 234.322 77.0462 222.224 77.4862C207.102 78.0361 58.2868 86.1164 60.915 84.2051Z"
        fill="#D1B3DB" />
    <path
        d="M323.355 55.8883C314.007 49.9164 292.63 46.8006 283.109 45.9893C231.393 51.1152 130.051 61.6655 138.411 62.8598C148.861 64.3527 243.675 86.2348 246.109 86.2348C248.544 86.2348 253.574 80.8795 283.434 67.4103C313.293 53.941 320.758 58.6472 323.355 55.8883Z"
        fill="#E2CEE8" />
    <path
        d="M298.711 14.3478C298.998 17.4958 296.215 16.3968 294.453 28.1427C292.691 39.8886 294.747 39.8886 294.649 41.6505C294.551 43.4124 247.6 67.8193 242.647 67.8193C237.695 67.8193 159.542 63.486 115.59 65.4979C71.639 67.5098 64.365 70.9144 64.365 68.7478C64.365 66.5812 69.7818 65.0336 68.389 54.3553C66.9961 43.6769 65.0509 40.8276 66.6606 40.145C67.1007 39.9584 72.731 39.3389 98.1181 36.642C123.16 33.9443 155.992 25.3083 176.658 21.6088L187.025 7.34863C235.044 9.24405 298.521 12.261 298.711 14.3478Z"
        fill="#F5EEF7" />
    <path
        d="M282.507 43.46C282.09 42.9038 255.267 57.3572 247.586 61.1984C244.832 62.5748 253.021 60.0426 259.108 57.2847C268.383 53.0816 283.029 44.1552 282.507 43.46Z"
        fill="#DAC1E2" />
    <path
        d="M292.648 29.3408C292.23 28.7846 265.407 43.2381 257.727 47.0793C254.973 48.4557 263.162 45.9235 269.248 43.1656C278.524 38.9624 293.17 30.0361 292.648 29.3408Z"
        fill="#DAC1E2" />
    <path
        d="M276.557 47.2452C271.449 41.7546 263.003 40.7081 259.418 40.8712C266.173 37.6888 274.548 33.5494 282.371 29.2338C283.514 28.5923 291.024 32.8704 292.391 40.9928C294.272 52.177 285.925 60.8068 281.824 64.0041C282.196 60.7055 281.664 52.7357 276.557 47.2452Z"
        fill="#EDE0F0" />
    <path
        d="M87.104 76.4126C79.9416 70.0573 84.1689 56.3665 90.412 53.9769C97.2419 52.965 106.05 51.9862 116.767 51.2591C112.075 52.3644 105.888 53.6365 96.2796 61.9766C89.929 67.4891 87.911 76.3118 87.104 76.4126Z"
        fill="#DAC1E2" />
    <mask id="mask1_3001_20263" style="mask-type:alpha" maskUnits="userSpaceOnUse" x="64" y="7" width="235" height="63">
        <path
            d="M298.711 14.3478C298.998 17.4958 296.215 16.3968 294.453 28.1427C292.691 39.8886 294.747 39.8886 294.649 41.6505C294.551 43.4124 247.6 67.8193 242.647 67.8193C237.695 67.8193 159.542 63.486 115.59 65.4979C71.639 67.5098 64.365 70.9144 64.365 68.7478C64.365 66.5812 69.7818 65.0336 68.389 54.3553C66.9961 43.6769 65.0509 40.8276 66.6606 40.145C67.1007 39.9584 72.731 39.3389 98.1181 36.642C123.16 33.9443 155.992 25.3083 176.658 21.6088L187.025 7.34863C235.044 9.24405 298.521 12.261 298.711 14.3478Z"
            fill="#F5EEF7" />
    </mask>
    <g mask="url(#mask1_3001_20263)">
        <path
            d="M135.673 49.2342C134.618 48.415 96.0902 51.04 76.9581 52.4549C68.4761 53.1025 78.8649 54.8111 95.7 53.6252C115.476 52.2321 136.991 50.2583 135.673 49.2342Z"
            fill="#DAC1E2" />
        <path
            d="M237.708 58.3608C236.653 57.5416 173.924 58.1729 154.791 59.5878C146.309 60.2353 156.659 61.0663 173.533 60.7581C196.562 60.3373 239.026 59.3848 237.708 58.3608Z"
            fill="#D1B3DB" />
        <path
            d="M202.196 54.7045C201.142 53.8853 138.412 54.5166 119.28 55.9315C110.798 56.5791 121.148 57.4101 138.022 57.1018C161.05 56.6811 203.515 55.7286 202.196 54.7045Z"
            fill="#D1B3DB" />
        <path
            d="M218.459 49.0014C217.844 48.1822 181.274 48.8135 170.12 50.2284C165.175 50.876 171.209 51.707 181.046 51.3987C194.472 50.9779 219.227 50.0255 218.459 49.0014Z"
            fill="#D1B3DB" />
        <path
            d="M288.187 25.0752C287.77 24.519 260.947 38.9725 253.266 42.8137C250.512 44.1901 258.701 41.6579 264.787 38.8999C274.063 34.6968 288.709 25.7705 288.187 25.0752Z"
            fill="#DAC1E2" />
        <path
            d="M113.774 43.5789C94.1751 44.3262 74.8832 45.1767 63.299 46.0002L62.1033 37.788L69.9801 30.6834L112.298 25.2778L181.027 24.042L193.359 40.1766C169.729 40.6398 136.301 42.7198 113.774 43.5789Z"
            fill="#EDE0F0" />
        <path
            d="M300.756 13.4381L271.545 10.3898L213.183 6.80762L135.974 36.0165C168.887 41.3649 236.137 41.1936 241.756 42.6181C245.099 41.6628 286.376 21.6972 300.756 13.4381Z"
            fill="#EDE0F0" />
        <path
            d="M242.409 42.0008C239.686 42.7332 191.224 38.5506 187.165 39.4675C183.367 41.1699 241.362 44.2269 242.41 44.096C243.457 43.9651 297.706 16.1071 297.052 15.4525C296.397 14.7978 245.814 41.0853 242.409 42.0008Z"
            fill="#DAC1E2" />
        <path
            d="M244.318 53.8057C244.281 48.1604 243.117 42.8985 242.511 42.4601C241.301 41.7487 243.007 46.5949 242.939 53.9225C242.84 64.5289 241.592 68.0879 242.665 67.9954C243.944 67.8852 244.365 60.7792 244.318 53.8057Z"
            fill="#DAC1E2" />
    </g>
    <path
        d="M54.7947 41.6535C89.4019 22.2397 161.488 0.274498 166.354 0.274414C172.435 0.274309 215.77 5.08922 253.022 5.34264C290.274 5.59605 285.997 6.15664 285.997 7.53931C285.997 8.16834 269.844 14.8387 250.789 22.0102C227.96 30.6023 215.912 35.8246 202.254 39.1678C196.602 40.5511 187.121 40.5539 182.916 40.4832C157.1 40.0493 84.2546 38.4829 54.7947 41.6535Z"
        fill="#F5EEF7" />
    <mask id="mask2_3001_20263" style="mask-type:alpha" maskUnits="userSpaceOnUse" x="54" y="0" width="233" height="42">
        <path
            d="M54.7947 41.6535C89.4019 22.2397 161.488 0.274498 166.354 0.274414C172.435 0.274309 215.77 5.08922 253.022 5.34264C290.274 5.59605 285.997 6.15664 285.997 7.53931C285.997 8.16834 269.844 14.8387 250.789 22.0102C227.96 30.6023 215.912 35.8246 202.254 39.1678C196.602 40.5511 187.121 40.5539 182.916 40.4832C157.1 40.0493 84.2546 38.4829 54.7947 41.6535Z"
            fill="#F5EEF7" />
    </mask>
    <g mask="url(#mask2_3001_20263)">
        <path
            d="M197.578 27.5525C196.084 32.8651 186.783 38.9523 182.197 40.4803L212.739 44.8697L246.228 24.126C231.803 23.296 202.558 18.7535 192.61 13.8545C197.156 17.521 199.132 22.0268 197.578 27.5525Z"
            fill="#E2CEE8" />
    </g>
    <path
        d="M369.295 57.7036C362.896 57.4576 331.855 85.9912 321.025 99.7059C326.08 97.8264 341.851 93.3811 362.091 100.757C387.224 109.915 392.108 118.252 402.056 126.657C409.741 126.657 413.206 96.9828 439.449 79.316C436.476 81.2599 428.574 82.0258 411.833 79.1442C390.907 75.5421 373.755 57.875 369.295 57.7036Z"
        fill="#F5EEF7" />
    <mask id="mask3_3001_20263" style="mask-type:alpha" maskUnits="userSpaceOnUse" x="321" y="57" width="119"
        height="70">
        <path
            d="M369.295 57.7036C362.896 57.4576 331.855 85.9912 321.025 99.7059C326.08 97.8264 341.851 93.3811 362.091 100.757C387.224 109.915 392.108 118.252 402.056 126.657C409.741 126.657 413.206 96.9828 439.449 79.316C436.476 81.2599 428.574 82.0258 411.833 79.1442C390.907 75.5421 373.755 57.875 369.295 57.7036Z"
            fill="#F5EEF7" />
    </mask>
    <g mask="url(#mask3_3001_20263)">
        <path
            d="M363.994 94.9998C355.203 93.0458 331.844 97.2377 321.263 99.5779L382.307 129.338L408.862 133.001L443.12 90.041C423.024 88.2683 405.301 124.238 403.164 124.086C401.028 123.933 374.982 97.4423 363.994 94.9998Z"
            fill="#D1B3DB" />
    </g>
    <path
        d="M298.865 208.983C308.632 210.054 332.741 208.697 351.036 194.689C369.33 180.682 377.477 171.701 379.264 168.962C380.603 172.622 387.268 181.378 403.219 187.121C419.17 192.863 434.057 192.571 439.507 191.707C432.802 200.633 418.968 214.778 402.071 224.688C391.667 230.79 380.103 235.286 368.326 235.97C350.928 236.981 338.367 234.944 328.935 231.492C312.317 225.41 305.41 214.933 298.865 208.983Z"
        fill="#F5EEF7" />
    <mask id="mask4_3001_20263" style="mask-type:alpha" maskUnits="userSpaceOnUse" x="298" y="168" width="142"
        height="69">
        <path
            d="M298.865 208.983C308.632 210.054 332.741 208.697 351.036 194.689C369.33 180.682 377.477 171.701 379.264 168.962C380.603 172.622 387.268 181.378 403.219 187.121C419.17 192.863 434.057 192.571 439.507 191.707C432.802 200.633 418.968 214.778 402.071 224.688C391.667 230.79 380.103 235.286 368.326 235.97C350.928 236.981 338.367 234.944 328.935 231.492C312.317 225.41 305.41 214.933 298.865 208.983Z"
            fill="#F5EEF7" />
    </mask>
    <g mask="url(#mask4_3001_20263)">
        <path
            d="M352.944 223.843C343.071 232.07 332.798 232.44 328.896 231.597L326.521 245.994L391.71 243.146L397.248 228.906C370.413 231.184 356.531 226.48 352.944 223.843Z"
            fill="#D1B3DB" />
    </g>
</svg>