<svg viewBox="0 0 434 215" fill="none">
    <ellipse opacity="0.2" cx="229.801" cy="177.807" rx="203.928" ry="36.6494" fill="#424242" />
    <path d="M128.95 155.433L0.271729 198.187L240.279 205.306L369.172 155.433H128.95Z" fill="#CCCCCC" />
    <path d="M0.271729 201.681L240.279 210.326V205.306L0.271729 198.187L0.271729 201.681Z" fill="#EDEDED" />
    <path d="M240.279 210.326L369.171 158.059L369.172 155.433L240.279 205.306V210.326Z" fill="#949494" />
    <path d="M151.233 0.987305L128.957 155.433H369.172H369.178L391.454 0.987305H151.233Z" fill="#EDEDED" />
    <path d="M131.111 160.614L47.4436 190.246L237.074 195.066L334.268 161.043L131.111 160.614Z" fill="#949494" />
    <path
        d="M184.905 40.644C185.64 33.1853 191.888 27.4856 199.383 27.4372L330.711 26.5898C339.613 26.5323 346.506 34.3659 345.317 43.1884L334.727 121.745C333.719 129.226 327.188 134.715 319.645 134.42L191.742 129.428C183.321 129.099 176.915 121.747 177.741 113.36L184.905 40.644Z"
        fill="#C82213" />
    <mask id="mask0_3001_20092" style="mask-type:alpha" maskUnits="userSpaceOnUse" x="177" y="26" width="169"
        height="109">
        <path
            d="M184.905 40.644C185.64 33.1853 191.888 27.4856 199.383 27.4372L330.711 26.5898C339.613 26.5323 346.506 34.3659 345.317 43.1884L334.727 121.745C333.719 129.226 327.188 134.715 319.645 134.42L191.742 129.428C183.321 129.099 176.915 121.747 177.741 113.36L184.905 40.644Z"
            fill="#EA3323" />
    </mask>
    <g mask="url(#mask0_3001_20092)">
        <path
            d="M177.651 28.8455C179.374 22.7521 184.819 18.4572 191.147 18.2003L334.318 12.3887C344.483 11.9761 351.96 21.798 348.857 31.4857L322.743 113.024C320.84 118.966 315.381 123.049 309.144 123.197L169.734 126.488C159.88 126.721 152.616 117.348 155.298 107.864L177.651 28.8455Z"
            fill="#EA3323" />
    </g>
    <path
        d="M195.876 51.0706L186.647 75.6701L190.043 45.2688C190.865 37.9127 197.048 32.3267 204.449 32.2526L239.851 31.8984L205.397 42.1831C201.008 43.4933 197.485 46.7819 195.876 51.0706Z"
        fill="#F4938B" />
    <path d="M294.51 73.8865L238.072 98.4145L240.148 56.0539L294.51 73.8865Z" fill="white" />
</svg>