<svg viewBox="0 0 398 380" fill="none">
    <ellipse opacity="0.2" cx="196.481" cy="335.284" rx="195.645" ry="44.1719" fill="#424242" />
    <path d="M238.96 303.018L246.763 300.931L257.498 316.289L256.156 325.881L241.743 327.671L238.96 303.018Z"
        fill="#FEBFA3" />
    <path
        d="M248.734 317.498C248.456 316.625 246.501 306.418 245.558 301.424L248.039 299.888L257.899 325.639L241.577 327.921L235.339 303.509L240.994 300.829C240.928 303.111 240.796 307.785 240.796 308.221C240.796 308.767 243.376 315.961 243.475 317.002C243.554 317.836 243.905 322.575 244.07 324.841L252.802 323.998C251.561 322.195 249.011 318.372 248.734 317.498Z"
        fill="#F0846F" />
    <path d="M77.3211 294.031L81.5192 280.457L97.379 284.077L105.141 289.871L99.9519 303.094L77.3211 294.031Z"
        fill="#FEBFA3" />
    <path
        d="M80.5894 283.767L79.3271 287.554C83.4367 290.106 91.8913 295.355 92.8338 295.927C93.7763 296.499 98.7806 298.858 101.165 299.966L103.1 296.642L80.5894 283.767Z"
        fill="#F0846F" />
    <path
        d="M75.6873 295.57C75.117 299.987 73.6811 303.516 73.0345 304.729C69.0372 313.796 68.0176 318.557 77.9437 322.879C90.3513 328.281 96.7036 318.308 96.1693 316.111C95.635 313.914 97.9503 309.818 98.0096 307.74C98.069 305.663 100.8 303.882 101.097 302.219C101.394 300.557 102.64 299.726 99.85 299.845C97.0598 299.963 89.5796 297.114 86.3144 294.442C83.0492 291.771 79.2498 290.346 77.7656 289.277C76.2814 288.209 76.4002 290.049 75.6873 295.57Z"
        fill="white" />
    <mask id="mask0_3001_20125" style="mask-type:alpha" maskUnits="userSpaceOnUse" x="70" y="288" width="32"
        height="37">
        <path
            d="M75.6873 295.57C75.117 299.987 73.6811 303.516 73.0345 304.729C69.0372 313.796 68.0176 318.557 77.9437 322.879C90.3513 328.281 96.7036 318.308 96.1693 316.111C95.635 313.914 97.9503 309.818 98.0096 307.74C98.069 305.663 100.8 303.882 101.097 302.219C101.394 300.557 102.64 299.726 99.85 299.845C97.0598 299.963 89.5796 297.114 86.3144 294.442C83.0492 291.771 79.2498 290.346 77.7656 289.277C76.2814 288.209 76.4002 290.049 75.6873 295.57Z"
            fill="white" />
    </mask>
    <g mask="url(#mask0_3001_20125)">
        <path
            d="M84.6887 295.475C83.324 293.986 77.5897 291.145 75.7929 289.418L77.4029 286.688L102.884 299.149L97.5637 321.55L88.3933 321.76L78.383 321.2L68.5127 316.44L72.2227 313.499C73.918 315.153 77.4112 320.626 90.7734 317C92.7186 316.472 94.1335 312.659 94.9035 311.539C95.6736 310.419 96.6536 307.409 96.6536 305.519C96.6536 303.629 99.1737 301.109 97.4236 301.249C95.6736 301.389 87.8908 298.968 84.6887 295.475Z"
            fill="#E3E3E3" />
    </g>
    <path
        d="M291.414 261.209C291.414 256.53 290.793 247.811 290.398 244.796C290.398 244.796 289.839 244.821 285.643 244.76C280.709 244.688 279.754 244.418 273.127 244.399C270.61 244.379 268.754 244.292 265.391 244.422C262.427 244.515 259.491 244.828 256.519 245.075C252.654 245.236 249.014 245.781 245.299 246.065C239.817 246.574 234.632 247.152 230.343 247.299C222.496 247.567 217.417 247.034 217.417 247.034C211.208 231.795 198.113 199.849 195.404 193.979C192.018 186.641 180.588 164.488 173.392 159.126C167.635 154.836 140.702 159.69 127.956 162.653C121.888 174.741 108.596 200.865 103.967 208.654C98.1819 218.39 86.1883 263.826 80.2618 270.035C74.3354 276.243 71.796 278.078 73.6304 280.9C75.4648 283.722 88.87 292.329 94.0909 294.728C99.3118 297.127 113.705 303.336 115.821 301.501C117.938 299.667 118.11 299.001 118.11 297.365C118.11 295.729 117.728 293.874 119.528 293.656C121.328 293.438 122.528 293.493 122.528 289.947C122.528 286.402 135.393 271.423 142.515 256.685C145.929 249.618 150.458 239.46 154.324 230.363C156.289 241.28 161.427 266.161 166.254 278.347C172.288 293.58 175.948 303.076 180.696 309.011C184.494 313.759 226.354 306.333 246.809 302.027C247.791 309.416 251.883 318.985 254.773 323.32C258.991 329.647 256.43 335.673 256.881 337.33C257.333 338.987 283.395 330.702 293.79 332.509C304.184 334.317 317.742 330.551 335.518 326.785C353.295 323.019 353.144 327.839 362.785 323.471C372.427 319.102 376.343 318.198 387.642 314.131C398.94 310.063 397.584 297.56 396.379 286.864C395.174 276.168 391.709 272.402 378.151 270.443C364.593 268.485 333.297 265.562 312.833 262.174C303.209 260.581 296.476 260.279 291.414 261.209Z"
        fill="#917AC2" />
    <mask id="mask1_3001_20125" style="mask-type:alpha" maskUnits="userSpaceOnUse" x="73" y="157" width="325"
        height="181">
        <path
            d="M291.414 261.209C291.414 256.53 290.793 247.811 290.398 244.796C290.398 244.796 289.839 244.821 285.643 244.76C280.709 244.688 279.754 244.418 273.127 244.399C270.61 244.379 268.754 244.292 265.391 244.422C262.427 244.515 259.491 244.828 256.519 245.075C252.654 245.236 249.014 245.781 245.299 246.065C239.817 246.574 234.632 247.152 230.343 247.299C222.496 247.567 217.417 247.034 217.417 247.034C211.208 231.795 198.113 199.849 195.404 193.979C192.018 186.641 180.588 164.488 173.392 159.126C167.635 154.836 140.702 159.69 127.956 162.653C121.888 174.741 108.596 200.865 103.967 208.654C98.1819 218.39 86.1883 263.826 80.2618 270.035C74.3354 276.243 71.796 278.078 73.6304 280.9C75.4648 283.722 88.87 292.329 94.0909 294.728C99.3118 297.127 113.705 303.336 115.821 301.501C117.938 299.667 118.11 299.001 118.11 297.365C118.11 295.729 117.728 293.874 119.528 293.656C121.328 293.438 122.528 293.493 122.528 289.947C122.528 286.402 135.393 271.423 142.515 256.685C145.929 249.618 150.458 239.46 154.324 230.363C156.289 241.28 161.427 266.161 166.254 278.347C172.288 293.58 175.948 303.076 180.696 309.011C184.494 313.759 226.354 306.333 246.809 302.027C247.791 309.416 251.883 318.985 254.773 323.32C258.991 329.647 256.43 335.673 256.881 337.33C257.333 338.987 283.395 330.702 293.79 332.509C304.184 334.317 317.742 330.551 335.518 326.785C353.295 323.019 353.144 327.839 362.785 323.471C372.427 319.102 376.343 318.198 387.642 314.131C398.94 310.063 397.584 297.56 396.379 286.864C395.174 276.168 391.709 272.402 378.151 270.443C364.593 268.485 333.297 265.562 312.833 262.174C303.209 260.581 296.476 260.279 291.414 261.209Z"
            fill="#917AC2" />
    </mask>
    <g mask="url(#mask1_3001_20125)">
        <path
            d="M155.342 227.736C154.365 230.341 146.899 246.825 143.644 253.878L141.1 250.521L152.086 230.481C152.154 226.989 152.29 219.8 152.29 218.987C152.29 217.969 153.816 211.154 154.223 210.849C154.548 210.605 154.901 219.97 155.036 224.683C156.664 219.665 159.96 209.446 160.123 208.714C160.326 207.798 163.378 204.339 163.48 204.95C163.581 205.56 156.562 224.481 155.342 227.736Z"
            fill="#775BB4" />
        <path
            d="M162.534 251.019L156.616 224.368L154.125 228.945L153.087 238.1L160.873 272.279L175.199 311.138L246.932 310.324L248.074 297.608C246.725 297.269 243.839 296.591 243.091 296.591C242.157 296.591 231.464 299.846 230.115 299.846C228.765 299.846 223.575 297.812 221.083 297.812C218.592 297.812 198.868 303.712 197.103 303.61C195.691 303.529 187.172 304.119 183.088 304.424C179.42 297.405 171.96 282.838 171.462 280.722C170.963 278.606 165.302 260.038 162.534 251.019Z"
            fill="#775BB4" />
        <path
            d="M335.733 278.813L360.611 281.061C361.297 281.123 360.649 280.021 359.734 279.735C358.82 279.449 353.538 277.171 347.259 276.924C340.98 276.676 295.374 279.32 293.474 279.402C291.574 279.485 249.421 289.331 248.744 290.009C248.201 290.552 246.303 298.776 245.422 302.821L248.744 302.075C248.787 299.194 249.21 293.205 250.559 292.306C252.246 291.181 287.524 282.326 293.287 281.624C297.338 281.13 317.6 279.876 330.753 279.103C336.736 281.257 348.966 285.622 350.018 285.85C351.332 286.136 355.276 289.337 356.362 290.423C357.231 291.291 360.001 292.957 361.277 293.681C359.429 291.147 355.379 285.896 353.961 285.164C352.544 284.433 341.216 280.821 335.729 279.106L335.733 278.813Z"
            fill="#775BB4" />
        <path
            d="M71.7041 280.614L75.6844 272.779L137.883 266.19L137.005 267.811L78.7248 274.844L74.827 279.456C83.8569 285.692 102.839 298.204 106.529 298.36C111.141 298.555 116.079 298.1 116.144 297.581C116.209 297.061 117.443 292.124 118.807 291.669C120.171 291.214 122.273 286.432 122.273 285.318C122.273 284.426 131.436 273.368 136.018 267.951L138.804 267.765L129.61 287.175L120.694 295.441L117.597 303.634L98.838 298.68L80.8909 287.717L71.7041 280.614Z"
            fill="#775BB4" />
        <path
            d="M131.803 169.732C130.482 169.732 123.144 167.418 120.65 166.244L123.72 159.574L141.021 162.195L178.456 157.372L191.773 175.093L207.816 214.31L221.133 246.187L294.213 241.896L297.993 260.489C293.665 261.687 284.655 264.122 283.241 264.268C281.473 264.451 275.499 268.718 274.95 269.084C274.401 269.45 272.39 269.937 272.146 269.572C271.902 269.206 279.4 264.024 281.656 263.049C283.911 262.073 291.592 260.671 291.592 260.245C291.592 259.818 292.019 253.051 291.958 252.625C291.897 252.198 282.753 252.381 281.899 252.503C281.046 252.625 264.038 260.549 262.758 261.22C261.478 261.891 251.481 270.181 249.835 271.949C248.518 273.363 247.335 273.229 246.909 272.985C251.034 268.921 259.503 260.61 260.381 259.879C261.259 259.147 272.329 254.25 277.754 251.893C275.986 251.71 271.902 251.418 269.708 251.71C266.964 252.076 254.163 257.014 253.614 257.136C253.066 257.258 250.688 257.38 250.505 257.136C250.322 256.892 261.661 250.979 271.049 249.943C278.559 249.113 288.239 249.272 292.141 249.455L292.08 246.59C286.837 246.346 276.096 245.846 275.072 245.797C273.792 245.736 262.088 246.407 260.807 246.407C259.527 246.407 235.997 248.479 235.57 248.479C235.229 248.479 232.169 249.667 230.681 250.261C231.011 250.591 231.762 251.57 232.127 252.848C232.583 254.446 233.04 261.674 232.507 261.75C231.975 261.826 231.366 255.435 229.997 253.685C228.627 251.935 224.899 252.924 224.062 253C223.225 253.076 216.15 255.451 215.887 255.254C215.625 255.057 210.64 256.96 210.18 256.96C209.721 256.96 192.994 268.898 192.141 269.226C191.289 269.554 187.484 268.373 187.025 268.505C186.566 268.636 181.58 267.455 181.056 267.521C180.636 267.573 176.636 266.797 174.689 266.403C173.52 266.609 171.058 267.042 170.563 267.125C170.068 267.207 163.755 266.54 160.66 266.196L165.199 260.832L190.574 265.165L205.016 256.087L216.569 251.549L212.339 236.591C206.872 223.319 194.556 194.567 189.027 185.737C182.116 174.7 175.514 166.757 173.245 167.479C170.975 168.201 160.041 167.789 158.803 167.789C157.566 167.789 147.388 170.262 144.912 170.469C142.932 170.634 140.855 169.162 140.064 168.406C137.451 168.818 133.123 169.731 131.803 169.732Z"
            fill="#775BB4" />
        <path
            d="M254.974 317.562C253.609 314.528 250.446 303.028 249.034 297.658L246.639 296.93L245.997 302.273L250.669 315.263L256.025 329.05L254.429 340.559L285.879 334.064L305.022 336.229L341.828 329.62L359.604 328.823L396.637 315.832L403.702 291.561L396.295 275.495C396.371 278.61 396.683 285.591 397.321 288.599C398.119 292.359 395.726 304.666 395.042 306.489C394.358 308.312 382.622 314.01 379.203 314.238C375.785 314.466 362.453 322.442 360.06 322.442C357.667 322.442 347.411 321.758 346.044 321.758C344.677 321.758 308.063 330.896 305.023 330.896C301.983 330.896 294.214 329.967 290.92 329.798C287.627 329.629 261.546 335.572 261.23 335.003C260.914 334.435 261.293 329.759 261.041 328.305C260.788 326.852 256.68 321.354 254.974 317.562Z"
            fill="#775BB4" />
    </g>
    <path
        d="M137.057 83.2865C134.524 81.4858 134.515 79.91 133.48 79.046C133.111 78.7806 131.468 79.2054 129.662 82.779C127.587 86.8862 125.652 94.0911 123.759 98.2208C121.866 102.351 118.769 106.48 117.822 110.61C116.876 114.74 115.843 117.235 114.552 125.236C113.262 133.237 111.197 132.979 111.541 138.571C111.885 144.164 113.347 147.863 113.003 151.391C112.659 154.918 112.745 156.122 115.842 159.478C118.94 162.833 127.457 166.963 134.082 166.619C139.381 166.343 143.052 166.633 144.224 166.813L156.545 163.262L159.631 126.005L152.627 121.431C151.656 121.02 151.182 120.313 151.066 120.01C151.427 118.767 151.711 117.569 151.829 116.421C152.277 112.078 153.27 100.482 153.217 97.0793C153.119 90.8425 154.813 89.5551 154.294 85.8314C154.189 85.0775 152.666 85.3761 147.258 86.3066C142.758 87.0809 141.446 86.4056 137.057 83.2865Z"
        fill="#EC9358" />
    <mask id="mask2_3001_20125" style="mask-type:alpha" maskUnits="userSpaceOnUse" x="111" y="78" width="49"
        height="89">
        <path
            d="M137.057 83.2865C134.524 81.4858 134.515 79.91 133.48 79.046C133.111 78.7806 131.468 79.2054 129.662 82.779C127.587 86.8862 125.652 94.0911 123.759 98.2208C121.866 102.351 118.769 106.48 117.822 110.61C116.876 114.74 115.843 117.235 114.552 125.236C113.262 133.237 111.197 132.979 111.541 138.571C111.885 144.164 113.347 147.863 113.003 151.391C112.659 154.918 112.745 156.122 115.842 159.478C118.94 162.833 127.457 166.963 134.082 166.619C139.381 166.343 143.052 166.633 144.224 166.813L156.545 163.262L159.631 126.005L152.627 121.431C151.656 121.02 151.182 120.313 151.066 120.01C151.427 118.767 151.711 117.569 151.829 116.421C152.277 112.078 153.27 100.482 153.217 97.0793C153.119 90.8425 154.813 89.5551 154.294 85.8314C154.189 85.0775 152.666 85.3761 147.258 86.3066C142.758 87.0809 141.446 86.4056 137.057 83.2865Z"
            fill="#70A7DE" />
    </mask>
    <g mask="url(#mask2_3001_20125)">
        <path
            d="M135.646 85.8012C134.773 85.1584 133.215 81.0151 132.545 79.0238L133.623 76.4092L154.822 84.0882L156.39 86.738L153.848 118.103L153.362 124.322L155.541 125.516L158.066 147.852L148.58 170.034L129.228 170.417L109.034 161.467L108.04 146.704L108.499 124.139C110.258 124.649 113.884 126.006 114.312 127.352C114.847 129.035 112.782 137.449 113.624 140.508C114.465 143.568 115.613 152.288 115.613 153.665C115.613 155.042 118.62 160.499 122.98 162.794C127.34 165.088 138.265 166.892 141.333 164.723C141.948 164.288 149.193 146.934 150.111 142.421C150.845 138.81 151.647 128.256 151.956 123.429L150.55 122.537C150.117 123.673 149.252 126.258 149.252 127.512C149.252 129.081 145.196 137.625 144.925 138.652C144.655 139.68 142.708 140.437 143.411 138.923C144.114 137.408 146.961 130.083 147.65 127.384C148.339 124.684 148.856 118.539 148.856 117.333C148.856 116.127 151.843 104.467 150.005 101.883C148.167 99.2979 152.245 88.5 152.188 88.0979C152.13 87.6959 145.984 89.5338 143.974 89.5338C141.964 89.5338 136.737 86.6046 135.646 85.8012Z"
            fill="#E67123" />
    </g>
    <path
        d="M286.333 209.635C289.898 204.907 292.507 197.439 293.367 189.45L259.047 192.11C258.593 194.264 255.221 197.967 253.591 199.549C250.836 201.939 242.893 208.193 237.367 212.373C231.841 216.553 221.284 227.606 219.938 228.102C218.592 228.597 218.309 227.039 215.829 230.085C213.349 233.132 209.311 233.911 207.185 234.974C205.06 236.037 204.705 236.391 205.91 236.745C209.939 238.523 211.264 241.734 212.821 246.193C214.541 251.12 213.053 252.375 213.797 253.723C214.511 254.709 216.446 253.165 219.561 252.189C227.225 250.85 236.765 244.584 249.063 240.207C256.269 237.642 263.305 234.769 268.976 227.965C277.629 217.581 281.878 215.546 286.333 209.635Z"
        fill="#D9D9D9" />
    <path
        d="M291.76 227.098C288.636 221.954 287.244 212.556 286.938 208.499L286.38 190.899C294.092 189.923 300.739 188.029 301.77 186.167C302.19 185.013 301.691 181.28 302.688 176.851C303.685 172.421 299.603 171.057 300.378 166.407C301.154 161.756 300.533 158.811 299.869 148.181C299.205 137.55 292.329 109.666 283.037 103.776C271.617 96.5371 247.803 103.763 232.558 100.903C231.539 100.598 233.244 104.952 222.798 114.85C214.851 122.379 205.411 124.739 200.437 124.243L193.799 110.938L170.997 115.59C165.127 118.076 156.752 121.924 152.595 121.306C152.95 125.848 153.282 136.762 151.77 144.085C149.88 153.238 143.015 167.566 144.309 167.964C145.602 168.362 150.875 166.571 154.656 166.372C158.437 166.173 163.212 166.073 171.172 163.586C177.331 161.661 182.399 159.782 184.346 158.401C184.412 158.354 184.474 158.308 184.533 158.262C184.533 158.262 192.265 171.446 193.161 180.699C194.118 190.592 197.926 199.126 201.644 207.996L210.529 229.526L211.94 232.968L216.893 246.693L230.567 247.305C236.193 246.999 249.874 245.594 259.843 244.779C278.099 243.286 292.157 246.404 294.058 243.746C295.113 242.27 294.517 239.498 294.058 236.857C293.598 234.217 295.664 233.528 291.76 227.098Z"
        fill="white" />
    <mask id="mask3_3001_20125" style="mask-type:alpha" maskUnits="userSpaceOnUse" x="144" y="100" width="159"
        height="148">
        <path
            d="M291.76 227.098C288.636 221.954 287.244 212.556 286.938 208.499L286.172 190.958C293.884 189.983 300.739 188.029 301.77 186.167C302.19 185.013 301.691 181.28 302.688 176.851C303.685 172.421 299.603 171.057 300.378 166.407C301.154 161.756 300.533 158.811 299.869 148.181C299.205 137.55 292.329 109.666 283.037 103.776C271.617 96.5371 247.803 103.763 232.558 100.903C231.539 100.598 233.244 104.952 222.798 114.85C214.851 122.379 205.411 124.739 200.437 124.243L193.799 110.938L170.997 115.59C165.127 118.076 156.752 121.924 152.595 121.306C152.95 125.848 153.282 136.762 151.77 144.085C149.88 153.238 143.015 167.566 144.309 167.964C145.602 168.362 150.875 166.571 154.656 166.372C158.437 166.173 163.212 166.073 171.172 163.586C177.331 161.661 182.399 159.782 184.346 158.401C184.412 158.354 184.474 158.308 184.533 158.262C184.533 158.262 192.265 171.446 193.161 180.699C194.118 190.592 197.926 199.126 201.644 207.996L210.529 229.526L211.94 232.968L216.893 246.693L230.567 247.305C236.193 246.999 249.874 245.594 259.843 244.779C278.099 243.286 292.157 246.404 294.058 243.746C295.113 242.27 294.517 239.498 294.058 236.857C293.598 234.217 295.664 233.528 291.76 227.098Z"
            fill="white" />
    </mask>
    <g mask="url(#mask3_3001_20125)">
        <path
            d="M272.035 227.847C274.38 223.987 283.352 214.26 287.545 209.878L288.68 203.353L267.59 215.08L240.446 232.577L226.732 248.087L257.186 251.87L303.592 247.859C300.975 240.608 290.118 222.768 290.592 224.036C292.473 229.074 293.811 232.987 293.314 235.319C292.919 237.172 287.261 240.71 289.531 240.71C291.801 240.71 293.031 241.372 293.031 242.129C293.031 242.885 278.655 244.21 272.791 242.791C266.927 241.372 244.324 245.061 243.757 244.777C243.189 244.493 252.268 240.899 257.281 239.481C262.293 238.062 269.103 232.671 272.035 227.847Z"
            fill="#E3E3E3" />
        <path
            d="M252.745 158.498C252.745 154.642 255.269 138.307 256.531 130.621C256.932 128.828 257.863 128.749 258.018 130.3C258.289 133.01 254.451 154.103 254.219 156.894C253.986 159.685 257.863 175.656 257.863 177.362C257.863 179.068 256.932 188.449 256.932 189.612C256.932 190.775 264.763 190.077 268.097 190.077C271.431 190.077 289.063 188.742 292.059 188.262C294.457 187.879 300.051 185.905 302.549 184.966L302.429 186.584C301.614 188.023 294.283 190.258 290.72 191.196L272.134 192.343C266.054 192.381 253.709 192.435 252.975 192.343C252.057 192.228 255.728 181.559 255.728 178.346C255.728 175.134 252.745 163.317 252.745 158.498Z"
            fill="#E3E3E3" />
        <path
            d="M166.312 161.334C162.657 162.138 151.081 162.401 145.75 162.432L141.904 162.546L141.904 172.013L177.258 163.877L186.133 175.859L199.446 239.17L233.912 233.845L264.645 201.178C262.786 198.101 258.979 191.984 258.613 192.131C258.156 192.313 245.088 205.93 243.169 206.57C241.249 207.21 224.708 221.74 222.607 223.659C220.505 225.578 219.591 225.213 218.494 225.213C217.617 225.213 215.082 228.929 213.925 230.787C208.868 219.029 198.627 194.598 198.115 190.943C197.475 186.373 193.089 170.929 192.357 167.822C191.626 164.715 186.509 156.033 184.955 152.286C183.401 148.539 185.503 142.418 184.864 142.326C184.224 142.235 182.122 147.626 182.762 149.362C183.274 150.751 183.767 154.267 183.95 155.851C179.594 157.344 169.968 160.53 166.312 161.334Z"
            fill="#E3E3E3" />
        <path
            d="M171.689 119.773L152.923 125.699L151.318 125.947L150.824 116.934L223.788 93.1064L232.553 99.98C232.305 110.141 226.391 121.401 216.751 125.575C207.896 129.409 202.101 128.374 200.331 127.427L197.245 122.612C195.269 123.682 191.413 126.177 183.903 126.113C179.162 126.073 174.281 121.872 171.689 119.773Z"
            fill="#E3E3E3" />
    </g>
    <path
        d="M181.653 33.6064L152.721 49.9016C150.639 54.1099 146.973 64.3183 148.959 71.4854C150.946 78.6525 160.845 87.1264 165.546 90.6449C163.595 96.1444 163.993 110.891 174.15 118.586C182.932 125.239 193.742 121.834 197.124 120.183L200.228 124.972C202.954 126.133 209.153 126.55 219.087 120.311C229.021 114.072 231.706 105.9 231.807 102.593C221.752 93.0225 219.995 81.6952 220.374 77.2279C223.882 76.1678 231.368 72.5334 233.246 66.476C235.124 60.4186 233.258 52.6808 232.09 49.5691L181.653 33.6064Z"
        fill="#FEBFA3" />
    <mask id="mask4_3001_20125" style="mask-type:alpha" maskUnits="userSpaceOnUse" x="148" y="33" width="87"
        height="93">
        <path
            d="M181.653 33.6064L152.721 49.9016C150.639 54.1099 146.973 64.3183 148.959 71.4854C150.946 78.6525 160.845 87.1264 165.546 90.6449C163.595 96.1444 163.993 110.891 174.15 118.586C182.932 125.239 193.742 121.834 197.124 120.183L200.228 124.972C202.954 126.133 209.153 126.55 219.087 120.311C229.021 114.072 231.706 105.9 231.807 102.593C221.752 93.0225 219.995 81.6952 220.374 77.2279C223.882 76.1678 231.368 72.5334 233.246 66.476C235.124 60.4186 233.258 52.6808 232.09 49.5691L181.653 33.6064Z"
            fill="#FEBFA3" />
    </mask>
    <g mask="url(#mask4_3001_20125)">
        <path
            d="M185.867 71.3391C183.959 72.9667 177.1 69.0239 178.711 68.7433C184.21 68.5187 190.499 58.5011 191.058 58.501C194.257 60.9703 200.996 61.541 203.966 61.5176C200.879 63.089 195.291 63.1545 192.882 62.9909C191.339 65.0954 187.775 69.7115 185.867 71.3391Z"
            fill="#815E32" />
        <mask id="mask5_3001_20125" style="mask-type:alpha" maskUnits="userSpaceOnUse" x="178" y="58" width="26"
            height="14">
            <path
                d="M185.867 71.3391C183.959 72.9667 177.1 69.0239 178.711 68.7433C184.21 68.5187 190.499 58.5011 191.058 58.501C194.257 60.9703 200.996 61.541 203.966 61.5176C200.879 63.089 195.291 63.1545 192.882 62.9909C191.339 65.0954 187.775 69.7115 185.867 71.3391Z"
                fill="#815E32" />
        </mask>
        <g mask="url(#mask5_3001_20125)">
            <path
                d="M184.67 70.3602C183.993 70.3866 180.305 69.3725 178.546 68.8622L177.96 69.7085L184.964 74.1386L204.378 61.6943L192.488 62.1837C190.165 64.8982 185.348 70.3339 184.67 70.3602Z"
                fill="#6B4E29" />
        </g>
        <path
            d="M174.003 77.339C174.209 75.7245 171.593 70.7377 170.919 71.571C169.538 74.846 159.483 76.9733 158.907 77.607L158.005 83.9665L158.464 84.5062C159.399 82.738 160.907 80.1903 162.782 79.3739C166.677 77.6781 173.746 79.3571 174.003 77.339Z"
            fill="#815E32" />
        <mask id="mask6_3001_20125" style="mask-type:alpha" maskUnits="userSpaceOnUse" x="158" y="71" width="17"
            height="14">
            <path
                d="M174.003 77.339C174.209 75.7245 171.593 70.7377 170.919 71.571C169.538 74.846 159.483 76.9733 158.907 77.607L158.005 83.9665L158.464 84.5062C159.399 82.738 160.907 80.1903 162.782 79.3739C166.677 77.6781 173.746 79.3571 174.003 77.339Z"
                fill="#815E32" />
        </mask>
        <g mask="url(#mask6_3001_20125)">
            <path
                d="M172.577 76.3084L170.834 70.2212L173.333 71.187L175.332 77.6731L173.323 79.1353L158.761 85.1961C158.761 85.1961 160.337 79.3422 160.839 78.8002C161.392 78.2032 172.577 76.3084 172.577 76.3084Z"
                fill="#6B4E29" />
        </g>
        <path
            d="M207.019 71.5328C206.37 68.3736 203.533 66.8394 201.875 66.5381C198.914 75.3611 194.615 77.0937 191.217 76.1224L191.719 80.9945L196.139 81.3963C197.144 81.6475 199.936 81.8685 203.07 80.7434C206.988 79.337 207.869 75.6682 207.019 71.5328Z"
            fill="#F5AC9E" />
        <path
            d="M167.588 92.9652C166.016 92.2596 165.695 89.9173 165.534 87.766L175.085 84.883L177.077 84.8457C177.077 84.8457 176.461 83.272 178.844 85.0084C180.281 86.0554 179.854 87.1815 179.854 87.1815L177.252 89.6668C177.008 90.6732 176.187 92.0992 175.641 93.3823C172.577 96.1996 169.186 93.6823 167.588 92.9652Z"
            fill="#F5AC9E" />
        <path
            d="M195.136 84.3414C194.14 84.2706 193.402 85.0786 195.548 85.6353C196.799 85.9597 197.895 86.787 198.547 87.6755C199.344 88.7617 199.363 89.7272 199.619 88.8633C199.765 86.7608 197.094 84.4808 195.136 84.3414Z"
            fill="#F0846F" />
        <path
            d="M198.925 100.589C195.39 104.3 194.795 107.337 194.667 108.66C194.603 109.107 194.801 109.706 195.204 109.098C195.571 108.545 196.354 105.508 200.076 101.465C203.565 97.6738 208.94 96.1315 208.799 95.5167C208.658 94.9018 203.2 96.0997 198.925 100.589Z"
            fill="#F0846F" />
        <path
            d="M201.458 102.729C199.862 104.715 199.733 106.075 199.725 106.748C199.712 106.975 199.835 107.272 200.009 106.952C200.168 106.661 200.576 105.188 202.283 103.054C204.138 100.735 206.291 99.941 206.175 99.6651C206.051 99.3692 203.387 100.327 201.458 102.729Z"
            fill="#F0846F" />
        <path
            d="M214.249 106.353C210.095 113.804 201.072 118.641 197.079 120.128L196.527 129.267L217.052 132.07L235.597 107.919L232.195 100.576C231.287 105.199 229.811 108.937 222.688 115.365C214.113 123.103 208.287 123.536 205.375 124.168L203.375 121.439C207.552 119.434 214.478 114.909 217.133 107.843C220.124 99.8807 219.662 91.7087 218.37 87.4775C218.728 90.6647 218.403 98.9017 214.249 106.353Z"
            fill="#F0846F" />
        <path
            d="M229.731 67.6798C226.716 72.7065 222.155 75.7351 220.407 77.2012L221.81 79.7705L239.029 76.1207L239.123 61.8958L236.27 53.9595L228.82 51.0654C232.519 54.6498 233.304 61.722 229.731 67.6798Z"
            fill="#F0846F" />
        <path
            d="M167.215 48.2897C163.489 47.2111 160.211 50.0652 157.35 51.7917L148.687 52.521L156.452 36.99L179.124 28.8662L203.402 30.3845L216.341 55.2449L213.31 52.222C212.472 53.1098 209.927 54.499 208.427 54.7752C206.928 55.0515 204.75 53.9954 204.257 53.1733C207.927 53.0944 208.614 52.6472 208.499 52.4334C208.713 51.447 208.775 49.0795 207.315 47.5011C205.49 45.5282 199.757 48.7576 194.48 49.3495C190.258 49.823 187.997 47.3203 187.931 45.9228C187.224 46.6792 185.199 48.0934 182.752 47.6989C179.694 47.2056 180.373 39.7689 179.288 42.1365C178.203 44.504 180.66 48.2644 179.862 51.4241C178.971 54.9545 174.496 55.3934 173.578 58.2039C172.936 60.1691 175.765 63.0608 177.82 64.2939C175.485 63.6527 170.471 61.4332 169.09 57.6846C167.708 53.936 174.186 51.2822 177.327 50.3122C174.384 50.1972 170.841 49.3392 167.215 48.2897Z"
            fill="#F0846F" />
        <path
            d="M228.013 63.5176C227.388 62.0783 226.021 61.4733 224.746 61.8991C222.548 62.713 225.008 63.0166 225.861 63.1709C226.714 63.3252 228.794 65.3167 228.013 63.5176Z"
            fill="#F0846F" />
        <path
            d="M224.612 58.2808C221.059 60.063 221.24 64.2752 221.87 66.1923C222.098 64.32 221.975 62.3785 224.015 60.6076C225.819 59.0417 228.472 60.328 229.208 59.4081C229.944 58.4882 228.371 56.3949 224.612 58.2808Z"
            fill="#F0846F" />
        <path
            d="M203.141 67.9284C202.366 68.3515 204.587 73.2623 202.061 77.4667C199.819 81.1996 194.764 81.3876 192.39 80.9146C191.696 80.8436 191.04 80.7193 191.367 81.2171C191.716 81.748 196.595 82.6162 200.105 80.8988C203.808 79.0871 204.156 76.7581 204.347 73.948C204.513 71.5131 203.917 67.5054 203.141 67.9284Z"
            fill="#F0846F" />
        <path
            d="M166.666 92.247C167.333 91.668 171.184 94.7888 176.009 93.0658L176.233 93.8729C174.835 94.8252 173.055 94.9981 171.122 94.7027C169.232 94.4142 165.999 92.8261 166.666 92.247Z"
            fill="#F0846F" />
        <path
            d="M206.105 69.1581C205.442 69.5801 207.709 73.8099 205.716 77.6956C203.947 81.1455 199.467 81.6144 197.33 81.3361C196.71 81.3144 196.119 81.2432 196.44 81.6658C196.782 82.1166 201.167 82.5965 204.183 80.8612C207.364 79.0307 207.534 76.9411 207.536 74.4333C207.539 72.2604 206.769 68.736 206.105 69.1581Z"
            fill="#F0846F" />
    </g>
    <path
        d="M188.208 73.6328L188.139 73.6505C186.742 74.291 188.489 80.7557 194.079 79.358C198.94 78.1426 201.67 69.8455 201.883 66.4287C197.298 71.2917 192.046 72.6444 188.208 73.6328Z"
        fill="#FF7878" />
    <path
        d="M174.58 79.301C175.718 78.2672 180.977 82.4132 177.495 87.0052C175.795 89.2478 172.305 89.9946 169 90.0155C168.48 89.8582 167.03 89.1996 165.393 87.8235C169.873 85.4198 172.516 81.9839 174.536 79.3573L174.58 79.301Z"
        fill="#FF7878" />
    <ellipse cx="192.475" cy="77.1115" rx="2.73217" ry="2.44451" fill="#333333" />
    <ellipse cx="2.74949" cy="2.25019" rx="2.74949" ry="2.25019"
        transform="matrix(-0.955915 0.293643 0.293643 0.955915 172.534 84.9795)" fill="#333333" />
    <ellipse cx="193.882" cy="74.657" rx="1.00559" ry="1.50426" transform="rotate(24.3229 193.882 74.657)"
        fill="white" />
    <ellipse cx="1.00559" cy="1.50426" rx="1.00559" ry="1.50426"
        transform="matrix(0.725767 0.687941 0.687941 -0.725767 170.325 86.7979)" fill="white" />
    <path
        d="M196.707 88.2802C195.59 87.9147 193.745 89.8812 192.763 90.6703C193.783 89.9015 195.473 90.342 196.633 90.2454C197.792 90.1488 198.058 88.7224 196.707 88.2802Z"
        fill="#F0846F" />
    <path
        d="M182.174 79.0243C179.773 75.2794 178.293 74.2002 178.293 74.2002C177.959 73.4925 178.306 73.1281 179.197 73.8419C179.87 74.3815 182.614 76.6411 183.763 79.6165C184.897 82.5527 185.166 85.1959 184.745 85.5231C178.043 86.771 176.12 92.1509 176.652 94.9122C177.257 98.0494 179.526 99.875 182.588 100.44C185.847 101.009 189.127 98.38 190.583 96.2394C192.597 93.279 192.996 93.4318 192.727 94.1124C191.327 97.3591 189.021 101.46 183.302 101.427C178.13 101.257 176.784 98.3602 175.953 96.1695C174.137 91.3817 177.189 87.5213 183.498 85.1179C184.308 83.5739 182.877 80.1225 182.174 79.0243Z"
        fill="#F0846F" />
    <path
        d="M159.492 22.057C151.583 21.9728 149.396 27.631 149.291 30.4706L143.472 40.0768L155.772 54.2681C156.88 51.5581 161.219 48.3437 162.777 47.565C166.279 45.8137 168.446 47.7184 168.816 50.4636C169.111 52.6598 161.69 54.8116 164.045 60.7297C166.4 66.6478 177.934 64.353 177.934 64.353C177.934 64.353 172.404 62.6326 172.137 59.5823C171.714 54.7512 176.908 54.7512 178.538 52.3357C180.169 49.9201 178.99 47.6527 177.512 44.4852C176.034 41.3176 179.214 40.2228 180.833 40.258C180.921 41.9297 181.277 45.4316 183.431 46.1918C185.584 46.952 187.425 45.2416 188.076 44.2913C189.66 49.5177 198.752 46.292 201.402 45.5751C204.884 44.6329 208.133 45.7943 208.509 48.8C208.807 51.1829 205.55 52.8612 203.914 53.1076C207.039 54.5857 209.912 53.4019 210.388 52.5572C211.443 53.3315 212.602 53.8286 212.898 58.1786C213.194 62.5287 210.425 65.8096 208.379 66.577C215.45 67.6649 216.632 62.1879 216.139 59.9354C216.139 59.9354 215.056 52.8495 223.992 52.0372C233.104 51.2088 233.973 58.8323 233.973 58.8323C243.476 59.9938 247.64 47.8328 244.564 42.9715C241.924 38.8009 237.172 40.4571 235.272 40.4903C232.94 40.531 233.083 38.6919 232.978 37.988C234.628 36.8378 235.771 35.0387 235.589 32.3075C235.251 27.2395 231.471 23.8256 229.624 22.7522C228.656 25.7261 225.485 30.9455 220.543 28.0314C215.602 25.1173 217.182 18.3353 218.59 15.3085C217.569 16.0476 214.778 17.5997 211.78 17.8953C208.781 18.191 206.729 16.3996 206.078 15.4669C207.592 11.8595 209.368 6.05795 204.178 1.89939C200.888 -0.73676 195.274 1.51225 194.042 2.69127C200.113 3.58873 199.479 8.86793 195.889 12.0354C193.018 14.5695 187.056 13.1617 184.434 12.141C185.489 10.6452 186.957 6.79844 184.381 3.37752C181.805 -0.0433936 176.726 0.297954 174.509 0.896243C175.758 1.21299 178.711 2.65948 180.527 5.91147C182.343 9.16345 178.744 11.4691 175.929 10.1444C167.277 6.70841 163.067 9.22626 160.859 12.3814C159.092 14.9055 159.211 19.8835 159.492 22.057Z"
        fill="#815E32" />
    <mask id="mask7_3001_20125" style="mask-type:alpha" maskUnits="userSpaceOnUse" x="143" y="0" width="103"
        height="67">
        <path
            d="M159.492 22.057C151.583 21.9728 149.396 27.631 149.291 30.4706L143.472 40.0768L155.772 54.2681C156.88 51.5581 161.219 48.3437 162.777 47.565C166.279 45.8137 168.446 47.7184 168.816 50.4636C169.111 52.6598 161.69 54.8116 164.045 60.7297C166.4 66.6478 177.934 64.353 177.934 64.353C177.934 64.353 172.404 62.6326 172.137 59.5823C171.714 54.7512 176.908 54.7512 178.538 52.3357C180.169 49.9201 178.99 47.6527 177.512 44.4852C176.034 41.3176 179.214 40.2228 180.833 40.258C180.921 41.9297 181.277 45.4316 183.431 46.1918C185.584 46.952 187.425 45.2416 188.076 44.2913C189.66 49.5177 198.752 46.292 201.402 45.5751C204.884 44.6329 208.133 45.7943 208.509 48.8C208.807 51.1829 205.55 52.8612 203.914 53.1076C207.039 54.5857 209.912 53.4019 210.388 52.5572C211.443 53.3315 212.602 53.8286 212.898 58.1786C213.194 62.5287 210.425 65.8096 208.379 66.577C215.45 67.6649 216.632 62.1879 216.139 59.9354C216.139 59.9354 215.056 52.8495 223.992 52.0372C233.104 51.2088 233.985 58.8438 233.985 58.8438C243.487 60.0052 247.64 47.8328 244.564 42.9715C241.924 38.8009 237.172 40.4571 235.272 40.4903C232.94 40.531 233.083 38.6919 232.978 37.988C234.628 36.8378 235.771 35.0387 235.589 32.3075C235.251 27.2395 231.471 23.8256 229.624 22.7522C228.656 25.7261 225.485 30.9455 220.543 28.0314C215.602 25.1173 217.182 18.3353 218.59 15.3085C217.569 16.0476 214.778 17.5997 211.78 17.8953C208.781 18.191 206.729 16.3996 206.078 15.4669C207.592 11.8595 209.368 6.05795 204.178 1.89939C200.888 -0.73676 195.274 1.51225 194.042 2.69127C200.113 3.58873 199.479 8.86793 195.889 12.0354C193.018 14.5695 187.056 13.1617 184.434 12.141C185.489 10.6452 186.957 6.79844 184.381 3.37752C181.805 -0.0433936 176.726 0.297954 174.509 0.896243C175.758 1.21299 178.711 2.65948 180.527 5.91147C182.343 9.16345 178.744 11.4691 175.929 10.1444C167.277 6.70841 163.067 9.22626 160.859 12.3814C159.092 14.9055 159.211 19.8835 159.492 22.057Z"
            fill="#815E32" />
    </mask>
    <g mask="url(#mask7_3001_20125)">
        <path
            d="M231.221 30.0124C231.164 36.4017 224.963 37.3388 221.913 36.8105C229.177 42.3723 239.598 36.0941 238.933 29.9096C238.402 24.962 231.488 20.8634 228.098 19.4326C228.779 20.4378 231.264 25.2479 231.221 30.0124Z"
            fill="#6B4E29" />
        <path
            d="M190.759 23.4116C185.089 29.8715 174.84 29.1846 171.743 28.4074C170.812 28.2157 170.925 27.8887 172 27.9168C176.242 27.999 180.231 26.7563 181.751 25.8451C178.461 22.0682 175.87 23.0223 173.181 23.8318C171.839 24.2357 168.77 25.9449 168.945 25.5686C170.47 23.4216 174.704 20.0995 178.758 20.4168C184.497 21.2037 188.568 23.9462 190.759 23.4116Z"
            fill="#6B4E29" />
        <path
            d="M210.342 37.7816C206.129 48.8241 194.423 47.816 190.64 47.4368C189.511 47.3721 187.169 44.1688 188.44 44.0158C194.134 46.4428 199.763 43.1597 201.396 41.8232C195.614 42.6875 193.593 41.3332 191.271 39.5091C188.549 37.3716 188.026 34.1174 188.283 34.0654C196.195 39.034 206.399 39.3811 210.342 37.7816Z"
            fill="#6B4E29" />
        <path
            d="M215.768 17.4193C211.661 19.8813 207.43 20.8226 201.084 20.6674C206.816 24.9417 213.413 24.3614 217.72 21.6018C224.572 17.211 223.949 11.6729 223.591 7.96521C222.837 8.99196 219.98 14.8949 215.768 17.4193Z"
            fill="#6B4E29" />
        <path
            d="M215.137 55.6548C213.917 67.0846 206.696 66.5892 205.763 66.912L212.404 70.4525L233.741 57.5229C233.916 55.8934 233.773 52.0532 230.499 48.5041C227.84 45.6215 216.438 43.4762 215.137 55.6548Z"
            fill="#6B4E29" />
        <path
            d="M174.135 46.1885C171.684 41.5787 177.646 38.6847 180.848 40.2239L179.965 44.4795L183.365 62.1673C181.161 63.9017 176.119 65.6542 172.041 63.3262C167.847 60.9324 168.6 57.2439 172.016 53.9808C174.391 51.7118 177.054 51.6786 174.135 46.1885Z"
            fill="#6B4E29" />
        <path
            d="M165.426 8.02893C158.837 9.28648 158.665 18.3441 159.488 22.2388C159.378 20.5886 160.044 16.2976 163.313 13.6619C168.458 9.51406 169.564 14.3928 176.379 14.9919C183.193 15.591 185.186 11.1273 183.526 6.73706C181.972 2.63068 176.575 1.31308 173.979 0.713867C179.251 4.88087 181.529 7.94285 178.608 9.51541C175.688 11.088 173.662 6.45699 165.426 8.02893Z"
            fill="#6B4E29" />
        <path
            d="M166.414 39.9447C168.186 38.9526 168.605 36.7077 168.715 35.6889L165.084 35.4478L161.205 32.5732L149.351 41.9012L153.479 56.2282L159.218 51.7691L157.359 47.2687L160.331 40.4561C162.106 40.7727 164.947 40.7664 166.414 39.9447Z"
            fill="#6B4E29" />
    </g>
    <path
        d="M229.348 303.424C225.704 304.335 224.303 303.703 223.165 303.681C220.151 303.971 213.453 306.293 210.774 313.258C207.425 321.965 220.686 332.347 224.839 330.472C228.992 328.596 235.221 328.797 239.038 328.596C242.856 328.395 244.999 328.797 244.33 327.591C243.945 326.898 242.178 325.315 241.634 322.7C241.232 320.767 242.115 318.212 241.517 315.337C240.785 311.815 239.548 309.708 239.397 306.973C239.681 304.419 239.708 302.054 239.708 301.604C239.708 301.063 238.433 300.627 236.425 300.976C234.954 301.231 231.273 302.943 229.348 303.424Z"
        fill="white" />
    <mask id="mask8_3001_20125" style="mask-type:alpha" maskUnits="userSpaceOnUse" x="210" y="300" width="35"
        height="31">
        <path
            d="M229.348 303.424C225.704 304.335 224.303 303.703 223.165 303.681C220.151 303.971 213.453 306.293 210.774 313.258C207.425 321.965 220.686 332.347 224.839 330.472C228.992 328.596 235.221 328.797 239.038 328.596C242.856 328.395 244.999 328.797 244.33 327.591C243.945 326.898 242.178 325.315 241.634 322.7C241.232 320.767 242.115 318.212 241.517 315.337C240.785 311.815 239.548 309.708 239.397 306.973C239.681 304.419 239.708 302.054 239.708 301.604C239.708 301.063 238.433 300.627 236.425 300.976C234.954 301.231 231.273 302.943 229.348 303.424Z"
            fill="white" />
    </mask>
    <g mask="url(#mask8_3001_20125)">
        <path
            d="M238.232 308.72C238.232 307.623 239.089 303.237 239.517 301.181L241.117 300.913L248.337 329.793L222.211 334.631L206.729 317.139L213.055 302.104C216.132 301.484 222.493 300.779 223.327 302.923C224.369 305.602 221.168 307.835 220.275 308.208C219.561 308.505 218.638 310.565 218.265 311.557C218.138 317.559 219.903 320.484 223.736 321.947C226.06 322.834 227.266 326.801 227.266 327.545C227.266 328.289 227.942 327.113 230.621 326.816C232.765 326.578 238.716 326.973 241.424 327.201C241.188 326.638 240.562 325.29 239.946 324.399C239.175 323.285 239.689 318.744 239.689 316.945C239.689 315.146 238.232 310.091 238.232 308.72Z"
            fill="#E3E3E3" />
    </g>
    <path
        d="M175.27 344.771C185.15 343.439 203.469 334.769 208.907 332.893C212.891 331.518 220.657 330.967 224.071 328.764C227.596 327.002 227.431 318.685 223.099 314.962C218.528 311.033 215.815 313.22 215.92 309.597C215.92 307.505 217.025 306.746 221.448 305.125C223.241 304.468 222.126 302.674 219.518 302.569C216.91 302.465 206.687 306.325 201.471 307.212C196.254 308.098 188.118 308.359 185.092 308.411C182.067 308.463 172.886 312.532 166.836 316.965C160.785 321.399 159.533 335.482 162.088 338.925C164.644 342.368 168.324 345.708 175.27 344.771Z"
        fill="#9E9DA2" />
    <mask id="mask9_3001_20125" style="mask-type:alpha" maskUnits="userSpaceOnUse" x="160" y="302" width="67"
        height="43">
        <path
            d="M175.27 344.771C185.15 343.439 203.469 334.769 208.907 332.893C212.891 331.518 220.656 330.967 224.071 328.764C227.596 327.002 227.431 318.685 223.099 314.962C218.528 311.033 215.815 313.22 215.92 309.597C215.92 307.505 217.024 306.746 221.448 305.125C223.241 304.468 222.126 302.674 219.518 302.569C216.91 302.465 206.686 306.325 201.47 307.212C196.254 308.098 188.117 308.359 185.092 308.411C182.067 308.463 172.886 312.532 166.836 316.965C160.785 321.399 159.532 335.482 162.088 338.925C164.644 342.368 168.324 345.708 175.27 344.771Z"
            fill="#5F5477" />
    </mask>
    <g mask="url(#mask9_3001_20125)">
        <path
            d="M220.291 310.911C202.364 317.852 209.083 332.202 208.217 337.525L230.416 333.501L232.753 320.778C229.594 315.975 228.34 307.795 220.291 310.911Z"
            fill="#807F85" />
        <path
            d="M166.111 322.698C165.417 324.607 162.121 335.363 165.677 344.384L159.606 341.088L154.141 333.455L152.233 312.377L181.898 299.714L222.491 301.448C216.651 303.732 204.623 308.457 203.235 309.081C201.5 309.862 183.893 310.469 182.418 310.469C180.943 310.469 166.912 320.497 166.111 322.698Z"
            fill="#807F85" />
        <path
            d="M179.415 334.797C178.725 326.653 173.978 322.745 170.929 320.933C170.51 320.858 169.686 320.917 169.743 321.76C169.814 322.815 174.27 324.848 175.563 327.83C176.856 330.813 176.856 336.877 175.024 338.617C173.192 340.357 170.898 341.482 171.146 341.882C171.394 342.283 172.816 344.185 175.144 343.634C177.15 342.571 179.864 340.101 179.415 334.797Z"
            fill="#B9B8BC" />
    </g>
    <path
        d="M97.7208 316.078C97.3965 315.022 96.4971 314.309 95.3844 315.621C94.7682 316.318 91.5174 319.974 87.103 320.572C79.4197 321.614 73.6414 317.742 71.7887 315.05C77.2135 308.961 79.6567 306.844 75.4787 303.959C71.5213 301.227 63.4501 306.943 57.8304 312.219C56.6689 313.31 55.7919 314.129 45.8833 317.714C40.0317 319.831 30.2596 322.743 25.1296 323.89C11.1323 327.022 12.672 338.187 19.3889 339.7C39.1948 344.164 76.1884 341.317 76.1884 341.317C76.1884 341.317 100.499 342.266 102.023 340.387C103.546 338.508 102.137 330.685 100.756 324.344C99.4734 318.454 98.1261 317.398 97.7208 316.078Z"
        fill="#9E9DA2" />
    <mask id="mask10_3001_20125" style="mask-type:alpha" maskUnits="userSpaceOnUse" x="14" y="303" width="89"
        height="40">
        <path
            d="M97.721 316.078C97.3967 315.022 96.4972 314.309 95.3846 315.621C94.7684 316.318 91.5176 319.974 87.1031 320.572C79.4199 321.614 73.6416 317.742 71.7889 315.05C77.2137 308.961 79.6569 306.844 75.4789 303.959C71.5215 301.227 63.4502 306.943 57.8306 312.219C56.6691 313.31 55.7921 314.129 45.8835 317.714C40.0319 319.831 30.2598 322.743 25.1298 323.89C11.1325 327.022 12.6722 338.187 19.3891 339.7C39.195 344.164 76.1886 341.317 76.1886 341.317C76.1886 341.317 100.499 342.266 102.023 340.387C103.546 338.508 102.137 330.685 100.756 324.344C99.4736 318.454 98.1263 317.398 97.721 316.078Z"
            fill="#917AC2" />
    </mask>
    <g mask="url(#mask10_3001_20125)">
        <path
            d="M71.5705 315.307C65.68 317.663 51.1988 316.535 44.6945 315.676L60.7096 288.433L83.1674 302.79C81.7561 305.981 77.4609 312.951 71.5705 315.307Z"
            fill="#807F85" />
        <path d="M75.3205 336.736L13.2961 336.031L18.089 343.36L103.231 343.219L103.795 335.185L75.3205 336.736Z"
            fill="#807F85" />
    </g>
    <path
        d="M200.011 238.097L206.215 235.94C207.14 236.244 209.346 237.001 209.882 237.67C210.551 238.507 211.93 240.328 212.469 241.611C213.008 242.894 214.273 245.702 214.477 246.613C214.641 247.342 214.892 249.47 214.998 250.443C215.018 251.094 215.182 252.477 214.801 252.975C212.048 253.928 206.655 255.785 206.239 256.035C205.719 256.346 191.263 266.523 189.975 266.769C188.944 266.965 186.705 266.242 185.714 265.856C185.322 266.016 185.006 266.112 184.791 266.124C182.736 266.247 180.84 265.454 179.601 265.057C179.253 265.209 178.973 265.304 178.78 265.327C177.34 265.502 174.038 264.042 172.316 263.24C171.718 263.583 171.27 263.784 171.04 263.793C169.567 263.848 164.8 263.623 164.091 263.023C163.382 262.423 167.625 259.816 172.054 256.03C174.887 253.608 178.853 251.941 179.727 247.631C176.179 251.014 171.107 254.451 167.232 254.833C163.725 255.179 158.815 252.161 161.721 251.396C171.664 248.777 176.781 239.393 179.399 239.121C181.494 238.902 193.628 236.333 200.011 238.097Z"
        fill="#FEBFA3" />
    <mask id="mask11_3001_20125" style="mask-type:alpha" maskUnits="userSpaceOnUse" x="160" y="235" width="56"
        height="32">
        <path
            d="M200.011 238.097L206.215 235.94C207.14 236.244 209.346 237.001 209.882 237.67C210.551 238.507 211.93 240.328 212.469 241.611C213.008 242.894 214.273 245.702 214.477 246.613C214.641 247.342 214.892 249.47 214.998 250.443C215.018 251.094 215.182 252.477 214.801 252.975C212.048 253.928 206.655 255.785 206.239 256.035C205.719 256.346 191.263 266.523 189.975 266.769C188.944 266.965 186.705 266.242 185.714 265.856C185.322 266.016 185.006 266.112 184.791 266.124C182.736 266.247 180.84 265.454 179.601 265.057C179.253 265.209 178.973 265.304 178.78 265.327C177.34 265.502 174.038 264.042 172.316 263.24C171.718 263.583 171.27 263.784 171.04 263.793C169.567 263.848 164.8 263.623 164.091 263.023C163.382 262.423 167.625 259.816 172.054 256.03C174.887 253.608 178.853 251.941 179.727 247.631C176.179 251.014 171.107 254.451 167.232 254.833C163.725 255.179 158.815 252.161 161.721 251.396C171.664 248.777 176.781 239.393 179.399 239.121C181.494 238.902 193.628 236.333 200.011 238.097Z"
            fill="#FEBFA3" />
    </mask>
    <g mask="url(#mask11_3001_20125)">
        <path
            d="M167.512 253.356C167.061 253.356 163.159 252.264 161.264 251.717L159.984 251.359L159.472 253.714L165.873 256.992L177.549 250.642L179.725 247.642C175.85 249.605 167.962 253.355 167.512 253.356Z"
            fill="#F0846F" />
        <path
            d="M209.915 241.68C209.137 240.409 206.313 237.532 204.998 236.252L207.457 235.177L213.909 241.476L216.47 253.357L214.012 255.507L208.276 256.89L192.145 268.31L184.771 267.952L185.284 265.802C186.462 265.768 189.209 266.329 189.783 266.329C190.356 266.329 201.22 257.604 205.846 253.866C208.441 252.415 212.765 251.711 212.765 251.302C212.765 250.79 210.888 243.268 209.915 241.68Z"
            fill="#F0846F" />
        <path
            d="M170.758 262.345L163.649 262.713L163.867 264.169L170.968 264.192C175.068 261.296 183.67 255.4 184.362 254.614C185.055 253.829 184.839 253.326 184.644 253.173L170.758 262.345Z"
            fill="#F0846F" />
        <path
            d="M178.863 264.285L174.534 264.433L174.353 265.704L178.913 265.544C182.161 263.249 190.042 258.756 190.591 258.133C191.14 257.511 190.969 257.113 190.814 256.991L178.863 264.285Z"
            fill="#F0846F" />
        <path
            d="M184.133 265.446L179.108 265.629L178.905 266.723L183.932 267.014C186.827 265.145 192.744 261.278 193.242 260.759C193.74 260.24 193.606 259.889 193.476 259.778L184.133 265.446Z"
            fill="#F0846F" />
    </g>
    <path
        d="M286.333 209.632C289.898 204.903 292.496 197.697 293.355 189.708L293.351 189.709C292.053 189.936 288.977 190.473 286.149 190.866C282.61 191.358 272.656 191.913 270.1 191.913C268.056 191.913 261.134 192.236 259.052 192.348C258.598 194.501 255.221 197.964 253.591 199.546C250.836 201.936 242.893 208.189 237.367 212.37C231.841 216.55 221.284 227.602 219.938 228.098C218.592 228.594 218.309 227.035 215.829 230.082C213.349 233.128 209.311 233.908 207.185 234.97C205.06 236.033 204.705 236.387 205.91 236.742C209.939 238.52 211.264 241.73 212.821 246.189C214.541 251.117 213.053 252.372 213.797 253.72C214.511 254.706 216.446 253.162 219.561 252.186C227.225 250.846 236.765 244.581 249.063 240.204C256.269 237.639 263.305 234.765 268.976 227.961C277.629 217.577 281.878 215.543 286.333 209.632Z"
        fill="#EC9358" />
    <mask id="mask12_3001_20125" style="mask-type:alpha" maskUnits="userSpaceOnUse" x="205" y="189" width="89"
        height="66">
        <path
            d="M286.333 209.632C289.898 204.903 292.496 197.697 293.355 189.708L293.351 189.709C292.053 189.936 288.977 190.473 286.149 190.866C282.611 191.358 272.656 191.913 270.1 191.913C268.056 191.913 261.135 192.236 259.052 192.348C258.598 194.501 255.221 197.964 253.591 199.546C250.836 201.936 242.893 208.189 237.367 212.37C231.841 216.55 221.284 227.602 219.938 228.098C218.592 228.594 218.309 227.035 215.829 230.082C213.349 233.128 209.311 233.908 207.185 234.97C205.06 236.033 204.705 236.387 205.91 236.742C209.939 238.52 211.264 241.73 212.821 246.189C214.541 251.117 213.053 252.372 213.797 253.72C214.511 254.706 216.447 253.162 219.561 252.186C227.226 250.846 236.765 244.581 249.063 240.204C256.269 237.639 263.305 234.765 268.976 227.961C277.629 217.577 281.878 215.543 286.333 209.632Z"
            fill="#70A7DE" />
    </mask>
    <g mask="url(#mask12_3001_20125)">
        <path
            d="M277.924 195.891C281.767 195.471 290.396 191.623 293.941 189.872L273.952 178.313L229.793 193.166L197.235 230.979L207.618 253.924L218.77 260.333L268.889 238.286L279.4 218.802C274.654 222.464 264.656 230.21 262.634 231.894C260.612 233.579 255.333 235.264 252.947 235.896C248.36 238.446 238.739 243.618 236.941 243.898C235.144 244.179 227.319 248.224 223.631 250.212C223.946 248.426 222.843 244.748 222.633 246.114C222.423 247.48 219.481 250.579 217.432 251.683C215.383 252.786 214.175 251.893 214.228 250.264C214.28 248.636 213.177 243.908 212.337 241.491C211.496 239.075 208.186 237.236 207.608 236.501C207.03 235.766 215.173 231.931 215.856 230.933C216.539 229.935 219.203 229.987 219.203 231.574C219.203 233.162 225.752 227.506 227.638 223.735C229.523 219.964 243.019 209.852 244.445 209.102C245.871 208.351 255.404 199.118 257.431 199.644C259.458 200.169 260.884 206.174 261.26 206.174C261.635 206.174 261.86 204.598 261.86 203.247C261.86 202.166 259.458 199.143 258.257 197.767C258.707 197.967 260.134 198.683 262.235 199.944C264.863 201.52 266.739 205.724 266.889 204.523C267.039 203.322 266.139 200.544 264.788 199.193C263.707 198.112 260.884 195.79 259.608 194.765C264.112 195.315 274.08 196.311 277.924 195.891Z"
            fill="#E67123" />
    </g>
    <path
        d="M174.883 253.878L148.805 256.887L155.861 264.796L164.335 263.161C164.335 263.161 164.017 263.065 164.022 262.829C164.026 262.669 164.288 262.337 164.288 262.337L174.883 253.878Z"
        fill="#F0DFA1" />
    <mask id="mask13_3001_20125" style="mask-type:alpha" maskUnits="userSpaceOnUse" x="148" y="253" width="27"
        height="12">
        <path
            d="M174.883 253.878L148.805 256.887L155.861 264.796L164.335 263.161C164.335 263.161 164.017 263.065 164.022 262.829C164.026 262.669 164.288 262.337 164.288 262.337L174.883 253.878Z"
            fill="#F0DFA1" />
    </mask>
    <g mask="url(#mask13_3001_20125)">
        <path d="M174.994 253.87L154.466 262.917L155.773 264.822L164.336 263.161L164.703 262.518L174.994 253.87Z"
            fill="#E4C658" />
    </g>
    <path d="M104.222 203.717L0.836914 215.396L57.0916 276.052L155.965 264.883L104.222 203.717Z" fill="#F0DFA1" />
    <mask id="mask14_3001_20125" style="mask-type:alpha" maskUnits="userSpaceOnUse" x="0" y="203" width="156"
        height="74">
        <path d="M104.222 203.717L0.836914 215.396L57.0916 276.052L155.965 264.883L104.222 203.717Z" fill="#F0DFA1" />
    </mask>
    <g mask="url(#mask14_3001_20125)">
        <ellipse cx="75.8872" cy="240.139" rx="20.3389" ry="9.04785" transform="rotate(-4.19914 75.8872 240.139)"
            fill="#FBF6E5" />
        <path
            d="M101.825 210.066L46.4413 208.851L40.8857 198.954L104.255 192.878L159.986 267.532L158.597 268.921L101.825 210.066Z"
            fill="#FBF6E5" />
        <path
            d="M51.7318 259.928L-0.826226 213.638L-5.33691 219.935L36.8749 277.404L141.896 287.83L157.662 264.435L70.2948 267.303L73.667 259.664L51.7318 259.928Z"
            fill="#E4C658" />
    </g>
    <path
        d="M136.572 44.8303C136.505 47.5464 138.189 59.412 139.156 65.9302L133.753 79.2126C133.937 79.6538 134.407 80.7097 134.808 81.4036C135.311 82.2709 135.995 83.0127 136.452 83.3208C136.908 83.629 139.739 85.4892 140.309 85.9115C140.88 86.3337 142.968 87.3837 144.76 87.3722C146.193 87.3631 148.743 86.8587 149.839 86.6076L153.711 85.5797C153.897 83.8828 154.339 80.7701 155.238 76.0516C156.78 67.9535 161.395 68.5875 161.45 63.3636C161.499 58.624 154.601 51.1975 155.122 45.9565L160.501 38.0866C165.404 39.5574 168.704 36.423 168.647 35.645C167.541 35.3082 167.575 35.1674 164.832 33.8685C161.847 32.4542 159.792 31.3022 159.792 31.3022L157.933 32.1555L153.369 29.5302L147.957 28.3994C147.957 28.3994 144.075 29.6159 142.646 30.3678C140.669 34.1946 136.624 42.7711 136.572 44.8303Z"
        fill="#FEBFA3" />
    <mask id="mask15_3001_20125" style="mask-type:alpha" maskUnits="userSpaceOnUse" x="133" y="28" width="36"
        height="60">
        <path
            d="M136.572 44.8303C136.505 47.5464 138.189 59.412 139.156 65.9302L133.753 79.2126C133.937 79.6538 134.407 80.7097 134.808 81.4036C135.311 82.2709 135.995 83.0127 136.452 83.3208C136.908 83.629 139.739 85.4892 140.309 85.9115C140.88 86.3337 142.968 87.3837 144.76 87.3722C146.193 87.3631 148.743 86.8587 149.839 86.6076L153.711 85.5797C153.897 83.8828 154.339 80.7701 155.238 76.0516C156.78 67.9535 161.395 68.5875 161.45 63.3636C161.499 58.624 154.601 51.1975 155.122 45.9565L160.501 38.0866C165.404 39.5574 168.704 36.423 168.647 35.645C167.541 35.3082 167.575 35.1674 164.832 33.8685C161.847 32.4542 159.792 31.3022 159.792 31.3022L157.933 32.1555L153.369 29.5302L147.957 28.3994C147.957 28.3994 144.075 29.6159 142.646 30.3678C140.669 34.1946 136.624 42.7711 136.572 44.8303Z"
            fill="#FEBFA3" />
    </mask>
    <g mask="url(#mask15_3001_20125)">
        <path
            d="M141.779 39.9065C142.164 39.4273 147.156 30.7382 148.201 28.3354L147.185 28.7575L143.648 35.038L140.867 40.3798C140.867 40.3798 141.095 40.7575 141.779 39.9065Z"
            fill="#F0846F" />
        <path
            d="M145.89 39.8623C146.348 39.4519 152.474 31.4392 153.813 29.1868L152.753 29.4779L148.453 35.2635L145.249 39.9114C145.249 39.9114 145.409 40.2926 145.89 39.8623Z"
            fill="#F0846F" />
        <path
            d="M151.62 39.2172C152.069 38.7969 157.006 33.8449 158.575 31.8997L157.592 31.7528L154.437 35.127L150.864 39.2918C150.864 39.2918 151.009 39.7895 151.62 39.2172Z"
            fill="#F0846F" />
        <path
            d="M159.509 47.6159C159.314 47.0325 160.793 42.6078 162.131 40.3554L165.258 40.214L169.478 38.2745L169.607 35.284C169.607 35.284 167.537 36.592 164.527 37.0504C162.852 37.3056 160.081 36.9797 160.081 36.9797C160.081 36.9797 153.717 43.7991 153.114 45.0562C152.653 46.015 153.585 49.5792 155.313 53.8716C157.542 59.082 158.486 62.814 158.509 63.4354C158.555 64.6445 153.533 71.4448 153.272 73.1187C152.853 75.3157 151.731 81.541 151.315 83.5575C149.803 84.6036 146.301 85.3373 143.264 84.9661C138.593 84.3952 135.686 81.5406 134.091 78.2506L132.659 80.9807L140.097 90.4015L154.147 88.7698C154.475 88.7517 154.809 88.5366 155.132 88.0893C156.255 86.5314 165.037 65.8732 165.049 65.1386C165.071 63.743 160.903 51.8035 159.509 47.6159Z"
            fill="#F0846F" />
    </g>
</svg>