<svg width="153" height="32" viewBox="0 0 153 32" fill="none" xmlns="http://www.w3.org/2000/svg">
    <g clip-path="url(#clip0_3091_12831)">
        <path fill-rule="evenodd" clip-rule="evenodd"
            d="M23.6415 1.5418C23.1664 1.06671 22.5221 0.799805 21.8502 0.799805H11.6245C10.9527 0.799805 10.3083 1.06671 9.8332 1.5418L2.27935 9.09565C1.80426 9.57074 1.53735 10.2151 1.53735 10.887V21.1126C1.53735 21.7845 1.80426 22.4289 2.27935 22.904L9.8332 30.4578C10.3083 30.9329 10.9527 31.1998 11.6245 31.1998H21.8502C22.5221 31.1998 23.1664 30.9329 23.6415 30.4578L31.1954 22.904C31.6705 22.4289 31.9374 21.7845 31.9374 21.1126V10.887C31.9374 10.2151 31.6705 9.57074 31.1954 9.09565L23.6415 1.5418ZM15.0219 3.40746C15.0219 2.96774 14.6654 2.61127 14.2257 2.61127H13.4657C13.026 2.61127 12.6695 2.96774 12.6695 3.40746V13.8187C12.6695 14.2585 13.026 14.6149 13.4657 14.6149H14.2257C14.6654 14.6149 15.0219 14.2585 15.0219 13.8187V3.40746ZM18.248 16.1524C17.937 16.4634 17.4329 16.4634 17.122 16.1524L16.5846 15.615C16.2737 15.3041 16.2737 14.8 16.5846 14.4891L24.7509 6.32277C25.0618 6.01184 25.5659 6.01184 25.8769 6.32277L26.4143 6.86017C26.7252 7.1711 26.7252 7.67522 26.4143 7.98615L18.248 16.1524ZM18.9309 20.0712C18.4911 20.0712 18.1347 19.7148 18.1347 19.275V18.515C18.1347 18.0753 18.4911 17.7189 18.9309 17.7189H29.3305C29.7702 17.7189 30.1266 18.0753 30.1266 18.515V19.275C30.1266 19.7148 29.7702 20.0712 29.3305 20.0712H18.9309ZM16.5944 23.3099C16.283 22.999 16.2828 22.4945 16.5939 22.1834L17.1308 21.6465C17.4418 21.3355 17.9459 21.3355 18.2568 21.6465L23.5179 26.9075C23.8296 27.2193 23.8287 27.725 23.5158 28.0356L22.9815 28.5661C22.6704 28.8749 22.1682 28.8742 21.858 28.5645L16.5944 23.3099ZM12.6658 23.989C12.6658 23.5493 13.0223 23.1928 13.462 23.1928H14.222C14.6617 23.1928 15.0182 23.5493 15.0182 23.989V28.5939C15.0182 29.0336 14.6617 29.3901 14.222 29.3901H13.462C13.0223 29.3901 12.6658 29.0336 12.6658 28.5939V23.989ZM9.43088 21.6428C9.74182 21.3318 10.2459 21.3318 10.5569 21.6428L11.0943 22.1802C11.4052 22.4911 11.4052 22.9952 11.0943 23.3062L8.7227 25.6777C8.41176 25.9887 7.90764 25.9887 7.59671 25.6777L7.05931 25.1403C6.74838 24.8294 6.74838 24.3253 7.05931 24.0143L9.43088 21.6428ZM8.76055 17.7189C9.20028 17.7189 9.55674 18.0753 9.55674 18.515V19.275C9.55674 19.7148 9.20028 20.0712 8.76055 20.0712H4.14401C3.70428 20.0712 3.34781 19.7148 3.34781 19.275V18.515C3.34781 18.0753 3.70428 17.7189 4.14401 17.7189H8.76055ZM11.1031 14.4928C11.414 14.8037 11.414 15.3078 11.1031 15.6188L10.5649 16.1569C10.2543 16.4676 9.75078 16.4679 9.43972 16.1577L4.15871 10.891C3.84723 10.5804 3.84668 10.076 4.15748 9.76471L4.70236 9.21893C5.01321 8.90756 5.51769 8.90736 5.8288 9.21847L11.1031 14.4928ZM15.5431 17.9906C15.5431 17.5508 15.1867 17.1944 14.7469 17.1944H12.9373C12.4976 17.1944 12.1411 17.5508 12.1411 17.9906V19.8002C12.1411 20.24 12.4976 20.5964 12.9373 20.5964H14.7469C15.1867 20.5964 15.5431 20.24 15.5431 19.8002V17.9906Z"
            fill="white" />
        <path fill-rule="evenodd" clip-rule="evenodd"
            d="M47.8725 8.88943C47.8725 8.46185 47.5386 8.11523 47.1267 8.11523H46.4167C46.0048 8.11523 45.6709 8.46185 45.6709 8.88943V20.728C45.6709 21.0809 45.787 21.4232 46.0001 21.6983L47.4246 23.5371C47.7077 23.9026 48.1351 24.1152 48.587 24.1152L53.983 24.1152C54.4347 24.1152 54.8621 23.9027 55.1452 23.5373L56.5696 21.699C56.7828 21.4239 56.899 21.0815 56.899 20.7285V8.88943C56.899 8.46185 56.5651 8.11523 56.1532 8.11523H55.4431C55.0313 8.11523 54.6973 8.46185 54.6973 8.88943V19.1734C54.6973 19.601 54.3634 19.9476 53.9516 19.9476H48.6183C48.2064 19.9476 47.8725 19.601 47.8725 19.1734V8.88943ZM63.8103 11.5093C63.8103 11.9368 64.1442 12.2835 64.5561 12.2835H67.4682C67.88 12.2835 68.2139 12.6301 68.2139 13.0577V23.341C68.2139 23.7686 68.5479 24.1152 68.9597 24.1152H69.6697C70.0816 24.1152 70.4155 23.7686 70.4155 23.341V13.0577C70.4155 12.6301 70.7494 12.2835 71.1613 12.2835H74.2926C74.7045 12.2835 75.0384 11.9368 75.0384 11.5093V8.88943C75.0384 8.46185 74.7045 8.11523 74.2926 8.11523H64.5561C64.1442 8.11523 63.8103 8.46185 63.8103 8.88943V11.5093ZM91.4734 13.0578C91.4734 12.6302 91.1395 12.2836 90.7276 12.2836H85.3944C84.9825 12.2836 84.6486 12.6302 84.6486 13.0578V19.1727C84.6486 19.6002 84.9825 19.9469 85.3944 19.9469H90.7276C91.1395 19.9469 91.4734 19.6002 91.4734 19.1727V13.0578ZM91.9212 8.69407C91.6381 8.32867 91.2107 8.11612 90.759 8.11605L85.3632 8.11533C84.9113 8.11527 84.4837 8.32792 84.2005 8.69357L82.776 10.533C82.5631 10.808 82.447 11.1503 82.447 11.5032V20.7288C82.447 21.0818 82.5632 21.4243 82.7764 21.6994L84.2008 23.5374C84.4839 23.9028 84.9113 24.1152 85.363 24.1152H90.7589C91.2106 24.1152 91.6379 23.9028 91.921 23.5374L93.3456 21.6994C93.5588 21.4243 93.675 21.0818 93.675 20.7288V11.5033C93.675 11.1504 93.5589 10.808 93.3458 10.533L91.9212 8.69407ZM111.105 13.0575C111.105 12.6299 110.771 12.2833 110.359 12.2833H105.025C104.614 12.2833 104.28 12.6299 104.28 13.0575V15.0046C104.28 15.4322 104.614 15.7788 105.025 15.7788H110.359C110.771 15.7788 111.105 15.4322 111.105 15.0046V13.0575ZM113.306 11.5032C113.306 11.1502 113.19 10.8077 112.977 10.5326L111.552 8.69344C111.269 8.32787 110.842 8.11523 110.39 8.11523H104.994C104.542 8.11523 104.115 8.32786 103.832 8.69342L102.407 10.5328C102.194 10.8078 102.078 11.1501 102.078 11.503V23.341C102.078 23.7686 102.412 24.1152 102.824 24.1152H103.534C103.946 24.1152 104.28 23.7686 104.28 23.341V20.7211C104.28 20.2935 104.614 19.9469 105.025 19.9469H110.39C110.842 19.9469 111.269 19.7341 111.552 19.3684L112.976 17.53C113.188 17.2551 113.304 16.9131 113.304 16.5605L113.306 11.5032ZM121.212 11.5093C121.212 11.9369 121.546 12.2835 121.958 12.2835H124.87C125.282 12.2835 125.615 12.6301 125.615 13.0577V19.1728C125.615 19.6004 125.282 19.947 124.87 19.947H121.958C121.546 19.947 121.212 20.2936 121.212 20.7212V23.341C121.212 23.7686 121.546 24.1152 121.958 24.1152H125.615H127.817H131.694C132.106 24.1152 132.44 23.7686 132.44 23.341V20.7212C132.44 20.2936 132.106 19.947 131.694 19.947H128.563C128.151 19.947 127.817 19.6004 127.817 19.1728V13.0577C127.817 12.6301 128.151 12.2835 128.563 12.2835H131.694C132.106 12.2835 132.44 11.9369 132.44 11.5093V8.88943C132.44 8.46185 132.106 8.11523 131.694 8.11523H121.958C121.546 8.11523 121.212 8.46185 121.212 8.88943V11.5093ZM143.044 13.0577C143.044 12.6301 143.378 12.2835 143.79 12.2835H149.123C149.535 12.2835 149.869 12.6301 149.869 13.0577V15.0054C149.869 15.433 149.535 15.7796 149.123 15.7796H143.79C143.378 15.7796 143.044 15.433 143.044 15.0054V13.0577ZM143.044 20.722C143.044 20.2945 143.378 19.9479 143.79 19.9479H149.123C149.535 19.9479 149.869 20.2945 149.869 20.722V23.341C149.869 23.7686 150.203 24.1152 150.615 24.1152H151.325C151.737 24.1152 152.071 23.7686 152.071 23.341V11.5026C152.071 11.1496 151.955 10.8073 151.742 10.5322L150.317 8.69329C150.034 8.32781 149.607 8.11523 149.155 8.11523H143.759C143.307 8.11523 142.88 8.32782 142.596 8.69332L141.172 10.5322C140.959 10.8073 140.843 11.1496 140.843 11.5025V23.341C140.843 23.7686 141.177 24.1152 141.589 24.1152H142.299C142.711 24.1152 143.044 23.7686 143.044 23.341V20.722Z"
            fill="white" />
    </g>
    <defs>
        <clipPath id="clip0_3091_12831">
            <rect width="152" height="32" fill="white" transform="translate(0.737305)" />
        </clipPath>
    </defs>
</svg>