<svg width="69" height="68" viewBox="0 0 69 68" fill="none" xmlns="http://www.w3.org/2000/svg">
    <g filter="url(#filter0_ii_187_3045)">
        <circle cx="34.668" cy="34" r="34" fill="white" fill-opacity="0.1" />
    </g>
    <g filter="url(#filter1_f_187_3045)">
        <path fill-rule="evenodd" clip-rule="evenodd"
            d="M46.8594 36.8563V40.153C48.4162 39.8783 49.6982 39.5577 50.7513 38.7794C51.5297 38.1841 52.3539 35.8032 52.2623 34.7959C51.1176 34.7501 48.8283 35.2537 47.6836 35.9405C47.363 36.1695 46.9967 36.5816 46.8594 36.8563Z"
            fill="url(#paint0_radial_187_3045)" />
        <path fill-rule="evenodd" clip-rule="evenodd"
            d="M46.8594 33.1913V36.3964C48.7367 36.0759 50.4766 35.847 51.7129 34.9312C52.6744 34.1986 53.4528 32.0008 53.3612 30.7646C51.9876 30.673 49.1946 31.314 47.8667 32.1382C47.5004 32.3214 47.0425 32.825 46.8594 33.1913Z"
            fill="url(#paint1_radial_187_3045)" />
        <path fill-rule="evenodd" clip-rule="evenodd"
            d="M46.8594 29.4837V32.5972C49.0572 32.231 51.0719 31.9562 52.4913 30.8573C53.636 29.9874 54.5059 28.0643 54.4144 26.6449C52.8118 26.5533 49.5609 27.2401 47.9583 28.2475C47.592 28.4764 47.0425 29.0716 46.8594 29.4837Z"
            fill="url(#paint2_radial_187_3045)" />
        <path fill-rule="evenodd" clip-rule="evenodd"
            d="M23.1482 36.8563V40.153C21.5915 39.8783 20.3094 39.5577 19.2563 38.7794C18.4779 38.1841 17.6537 35.8032 17.7453 34.7959C18.89 34.7501 21.1794 35.2537 22.3241 35.9405C22.5988 36.1695 23.0109 36.5816 23.1482 36.8563Z"
            fill="url(#paint3_radial_187_3045)" />
        <path fill-rule="evenodd" clip-rule="evenodd"
            d="M23.1459 33.1913V36.3964C21.2686 36.0759 19.5287 35.847 18.2924 34.9312C17.3309 34.1986 16.5525 32.0008 16.6441 30.7646C18.0177 30.673 20.8107 31.314 22.1386 32.1382C22.5049 32.3214 22.9628 32.825 23.1459 33.1913Z"
            fill="url(#paint4_radial_187_3045)" />
        <path fill-rule="evenodd" clip-rule="evenodd"
            d="M23.1475 29.4837V32.5972C20.9497 32.231 18.9351 31.9562 17.5156 30.8573C16.3709 29.9874 15.501 28.0643 15.5926 26.6449C17.1951 26.5533 20.4461 27.2401 22.0486 28.2475C22.4149 28.4764 22.9644 29.0716 23.1475 29.4837Z"
            fill="url(#paint5_radial_187_3045)" />
        <path fill-rule="evenodd" clip-rule="evenodd"
            d="M47.0928 29.2556L46.7265 27.882C46.4976 27.0578 46.1313 26.4168 45.5361 25.7758C44.6203 24.86 42.8346 23.7611 41.6899 23.0743C40.1789 22.1586 38.6221 21.3344 37.0195 20.6476C35.6459 20.0524 34.3638 20.0524 32.9444 20.6476C31.3418 21.3802 29.7851 22.1586 28.2741 23.0743C27.1294 23.7611 25.3436 24.86 24.4279 25.7758C23.8326 26.4168 23.4663 27.0578 23.2374 27.882L22.8711 29.2556H47.0928Z"
            fill="url(#paint6_linear_187_3045)" />
        <path fill-rule="evenodd" clip-rule="evenodd"
            d="M45.1689 26.4167C44.0242 25.5925 42.6963 24.7225 41.2769 23.8984C39.8575 23.0742 38.4381 22.3416 37.1102 21.7921C35.7366 21.1969 34.3172 21.1969 32.8977 21.7921C31.6157 22.3416 30.1963 23.0742 28.731 23.8984C27.3116 24.7225 25.9838 25.5925 24.8391 26.4167C23.6028 27.3324 22.916 28.5229 22.7328 30.0339C22.5955 31.4533 22.5039 33.01 22.5039 34.7042C22.5039 36.3983 22.5955 37.9551 22.7328 39.3745C22.916 40.8855 23.6028 42.1217 24.8391 42.9917C25.9838 43.8158 27.3116 44.6858 28.731 45.51C30.1505 46.3341 31.5699 47.0667 32.8977 47.6162C34.2714 48.2114 35.6908 48.2114 37.1102 47.6162C38.3923 47.0667 39.8117 46.3341 41.2769 45.51C42.6963 44.6858 44.0242 43.8158 45.1689 42.9917C46.4051 42.0759 47.092 40.8855 47.2751 39.3745C47.4125 37.9551 47.504 36.3983 47.504 34.7042C47.504 33.01 47.4125 31.4533 47.2751 30.0339C47.092 28.5687 46.3594 27.3324 45.1689 26.4167Z"
            fill="url(#paint7_radial_187_3045)" />
        <path fill-rule="evenodd" clip-rule="evenodd"
            d="M43.5132 28.6136C42.3228 27.7437 41.1323 26.9653 39.8502 26.2327C38.614 25.5001 37.2861 24.8591 35.9583 24.2638C35.2714 23.9433 34.6304 23.9433 33.9436 24.2638C32.6158 24.8591 31.3337 25.5001 30.0516 26.2327C28.8154 26.9653 27.5791 27.7437 26.3886 28.6136C25.7934 29.0715 25.4729 29.6209 25.3813 30.3535C25.2439 31.7729 25.1523 33.2381 25.1523 34.7033C25.1523 36.1685 25.1981 37.6337 25.3813 39.0531C25.4729 39.7857 25.7934 40.3352 26.3886 40.7931C27.5791 41.663 28.7696 42.4414 30.0516 43.174C31.3337 43.9066 32.6158 44.5476 33.9436 45.1428C34.6304 45.4634 35.2714 45.4634 35.9583 45.1428C37.2861 44.5476 38.5682 43.9066 39.8502 43.174C41.0865 42.4414 42.3228 41.663 43.5132 40.7931C44.1085 40.3352 44.429 39.7857 44.5206 39.0531C44.6579 37.6337 44.7495 36.1685 44.7495 34.7033C44.7495 33.2381 44.7037 31.7729 44.5206 30.3535C44.4748 29.6209 44.1543 29.0715 43.5132 28.6136Z"
            fill="url(#paint8_radial_187_3045)" />
        <path fill-rule="evenodd" clip-rule="evenodd"
            d="M33.997 44.4563C32.6234 43.861 31.3413 43.1742 30.0592 42.4416C28.7772 41.709 27.5409 40.8849 26.3504 40.0149C25.9383 39.6944 25.6636 39.3739 25.4805 38.916C25.4805 38.9618 25.4805 39.0076 25.4805 39.0534C25.572 39.786 25.8926 40.3354 26.4878 40.7933C27.6783 41.6633 28.8688 42.4416 30.1508 43.1742C31.4329 43.9068 32.7149 44.5479 34.0428 45.1431C34.7296 45.4636 35.3706 45.4636 36.0575 45.1431C37.3853 44.5479 38.6674 43.9068 39.9494 43.1742C41.1857 42.4416 42.422 41.6633 43.6124 40.7933C44.2077 40.3354 44.5282 39.786 44.6198 39.0534C44.6198 39.0076 44.6198 38.9618 44.6198 38.916C44.4366 39.3281 44.1619 39.6944 43.7498 40.0149C42.5593 40.8849 41.323 41.709 40.041 42.4416C38.7589 43.1742 37.4311 43.861 36.1032 44.4563C35.3248 44.731 34.6838 44.731 33.997 44.4563Z"
            fill="url(#paint9_linear_187_3045)" />
    </g>
    <path fill-rule="evenodd" clip-rule="evenodd"
        d="M46.4609 36.2739V39.4827C47.9762 39.2153 49.2241 38.9033 50.2491 38.1457C51.0068 37.5664 51.809 35.2489 51.7198 34.2684C50.6057 34.2239 48.3773 34.7141 47.2631 35.3826C46.9512 35.6054 46.5946 36.0065 46.4609 36.2739Z"
        fill="url(#paint10_radial_187_3045)" />
    <path fill-rule="evenodd" clip-rule="evenodd"
        d="M46.4609 32.7104V35.83C48.2882 35.518 49.9817 35.2952 51.185 34.4039C52.1209 33.6908 52.8786 31.5516 52.7894 30.3483C51.4524 30.2592 48.7338 30.8831 47.4414 31.6853C47.0849 31.8636 46.6392 32.3538 46.4609 32.7104Z"
        fill="url(#paint11_radial_187_3045)" />
    <path fill-rule="evenodd" clip-rule="evenodd"
        d="M46.4609 29.0992V32.1297C48.6001 31.7732 50.5611 31.5058 51.9427 30.4362C53.0568 29.5894 53.9036 27.7176 53.8145 26.3361C52.2546 26.2469 49.0904 26.9154 47.5305 27.8959C47.174 28.1187 46.6392 28.6981 46.4609 29.0992Z"
        fill="url(#paint12_radial_187_3045)" />
    <path fill-rule="evenodd" clip-rule="evenodd"
        d="M23.379 36.2739V39.4827C21.8637 39.2153 20.6158 38.9033 19.5908 38.1457C18.8332 37.5664 18.031 35.2489 18.1201 34.2684C19.2343 34.2239 21.4626 34.7141 22.5768 35.3826C22.8442 35.6054 23.2453 36.0065 23.379 36.2739Z"
        fill="url(#paint13_radial_187_3045)" />
    <path fill-rule="evenodd" clip-rule="evenodd"
        d="M23.3747 32.7104V35.83C21.5475 35.518 19.8539 35.2952 18.6506 34.4039C17.7147 33.6908 16.9571 31.5516 17.0462 30.3483C18.3832 30.2592 21.1018 30.8831 22.3942 31.6853C22.7508 31.8636 23.1964 32.3538 23.3747 32.7104Z"
        fill="url(#paint14_radial_187_3045)" />
    <path fill-rule="evenodd" clip-rule="evenodd"
        d="M23.3756 29.0992V32.1297C21.2364 31.7732 19.2754 31.5058 17.8939 30.4362C16.7797 29.5894 15.9329 27.7176 16.0221 26.3361C17.5819 26.2469 20.7462 26.9154 22.306 27.8959C22.6625 28.1187 23.1973 28.6981 23.3756 29.0992Z"
        fill="url(#paint15_radial_187_3045)" />
    <path fill-rule="evenodd" clip-rule="evenodd"
        d="M46.6852 28.8755L46.3287 27.5385C46.1059 26.7363 45.7493 26.1124 45.17 25.4885C44.2786 24.5971 42.5405 23.5275 41.4264 22.859C39.9556 21.9677 38.4404 21.1655 36.8805 20.497C35.5435 19.9177 34.2957 19.9177 32.9141 20.497C31.3542 21.2101 29.839 21.9677 28.3683 22.859C27.2541 23.5275 25.516 24.5971 24.6246 25.4885C24.0453 26.1124 23.6887 26.7363 23.4659 27.5385L23.1094 28.8755H46.6852Z"
        fill="url(#paint16_linear_187_3045)" />
    <path fill-rule="evenodd" clip-rule="evenodd"
        d="M44.8106 26.1115C43.6964 25.3093 42.404 24.4626 41.0224 23.6604C39.6408 22.8582 38.2593 22.1451 36.9668 21.6103C35.6298 21.0309 34.2483 21.0309 32.8667 21.6103C31.6188 22.1451 30.2372 22.8582 28.8111 23.6604C27.4295 24.4626 26.1371 25.3093 25.0229 26.1115C23.8196 27.0028 23.1511 28.1616 22.9728 29.6323C22.8391 31.0138 22.75 32.5291 22.75 34.178C22.75 35.827 22.8391 37.3423 22.9728 38.7238C23.1511 40.1945 23.8196 41.3978 25.0229 42.2446C26.1371 43.0468 27.4295 43.8935 28.8111 44.6957C30.1927 45.4979 31.5742 46.211 32.8667 46.7458C34.2037 47.3251 35.5853 47.3251 36.9668 46.7458C38.2147 46.211 39.5963 45.4979 41.0224 44.6957C42.404 43.8935 43.6964 43.0468 44.8106 42.2446C46.0139 41.3532 46.6824 40.1945 46.8607 38.7238C46.9944 37.3423 47.0835 35.827 47.0835 34.178C47.0835 32.5291 46.9944 31.0138 46.8607 29.6323C46.6824 28.2061 45.9693 27.0028 44.8106 26.1115Z"
        fill="url(#paint17_radial_187_3045)" />
    <path fill-rule="evenodd" clip-rule="evenodd"
        d="M43.2033 28.2529C42.0446 27.4062 40.8859 26.6486 39.638 25.9355C38.4347 25.2224 37.1423 24.5985 35.8498 24.0191C35.1813 23.7072 34.5574 23.7072 33.8889 24.0191C32.5964 24.5985 31.3486 25.2224 30.1007 25.9355C28.8974 26.6486 27.6941 27.4062 26.5353 28.2529C25.956 28.6986 25.644 29.2334 25.5549 29.9465C25.4212 31.328 25.332 32.7541 25.332 34.1803C25.332 35.6064 25.3766 37.0325 25.5549 38.4141C25.644 39.1271 25.956 39.6619 26.5353 40.1076C27.6941 40.9544 28.8528 41.712 30.1007 42.4251C31.3486 43.1381 32.5964 43.7621 33.8889 44.3414C34.5574 44.6534 35.1813 44.6534 35.8498 44.3414C37.1423 43.7621 38.3901 43.1381 39.638 42.4251C40.8413 41.712 42.0446 40.9544 43.2033 40.1076C43.7827 39.6619 44.0947 39.1271 44.1838 38.4141C44.3175 37.0325 44.4066 35.6064 44.4066 34.1803C44.4066 32.7541 44.3621 31.328 44.1838 29.9465C44.1392 29.2334 43.8273 28.6986 43.2033 28.2529Z"
        fill="url(#paint18_radial_187_3045)" />
    <path fill-rule="evenodd" clip-rule="evenodd"
        d="M33.934 43.6718C32.597 43.0925 31.3491 42.424 30.1012 41.7109C28.8533 40.9978 27.65 40.1957 26.4913 39.3489C26.0902 39.0369 25.8228 38.725 25.6445 38.2793C25.6445 38.3239 25.6445 38.3684 25.6445 38.413C25.7337 39.1261 26.0456 39.6609 26.625 40.1065C27.7837 40.9533 28.9425 41.7109 30.1904 42.424C31.4382 43.137 32.6861 43.761 33.9785 44.3403C34.647 44.6523 35.271 44.6523 35.9395 44.3403C37.2319 43.761 38.4798 43.137 39.7277 42.424C40.931 41.7109 42.1343 40.9533 43.293 40.1065C43.8724 39.6609 44.1843 39.1261 44.2735 38.413C44.2735 38.3684 44.2735 38.3239 44.2735 38.2793C44.0952 38.6804 43.8278 39.0369 43.4267 39.3489C42.268 40.1957 41.0647 40.9978 39.8168 41.7109C38.5689 42.424 37.2765 43.0925 35.984 43.6718C35.2264 43.9392 34.6025 43.9392 33.934 43.6718Z"
        fill="url(#paint19_linear_187_3045)" />
    <defs>
        <filter id="filter0_ii_187_3045" x="0.667969" y="0" width="68" height="68" filterUnits="userSpaceOnUse"
            color-interpolation-filters="sRGB">
            <feFlood flood-opacity="0" result="BackgroundImageFix" />
            <feBlend mode="normal" in="SourceGraphic" in2="BackgroundImageFix" result="shape" />
            <feColorMatrix in="SourceAlpha" type="matrix" values="0 0 0 0 0 0 0 0 0 0 0 0 0 0 0 0 0 0 127 0"
                result="hardAlpha" />
            <feOffset />
            <feGaussianBlur stdDeviation="5" />
            <feComposite in2="hardAlpha" operator="arithmetic" k2="-1" k3="1" />
            <feColorMatrix type="matrix" values="0 0 0 0 1 0 0 0 0 1 0 0 0 0 1 0 0 0 0.16 0" />
            <feBlend mode="normal" in2="shape" result="effect1_innerShadow_187_3045" />
            <feColorMatrix in="SourceAlpha" type="matrix" values="0 0 0 0 0 0 0 0 0 0 0 0 0 0 0 0 0 0 127 0"
                result="hardAlpha" />
            <feMorphology radius="15" operator="dilate" in="SourceAlpha" result="effect2_innerShadow_187_3045" />
            <feOffset dx="-10" dy="-10" />
            <feGaussianBlur stdDeviation="7.5" />
            <feComposite in2="hardAlpha" operator="arithmetic" k2="-1" k3="1" />
            <feColorMatrix type="matrix" values="0 0 0 0 1 0 0 0 0 1 0 0 0 0 1 0 0 0 0.1 0" />
            <feBlend mode="normal" in2="effect1_innerShadow_187_3045" result="effect2_innerShadow_187_3045" />
        </filter>
        <filter id="filter1_f_187_3045" x="7.07451" y="11.6897" width="55.8588" height="44.8842"
            filterUnits="userSpaceOnUse" color-interpolation-filters="sRGB">
            <feFlood flood-opacity="0" result="BackgroundImageFix" />
            <feBlend mode="normal" in="SourceGraphic" in2="BackgroundImageFix" result="shape" />
            <feGaussianBlur stdDeviation="4.25571" result="effect1_foregroundBlur_187_3045" />
        </filter>
        <radialGradient id="paint0_radial_187_3045" cx="0" cy="0" r="1" gradientUnits="userSpaceOnUse"
            gradientTransform="translate(52.6824 35.7009) scale(5.46761 5.46756)">
            <stop stop-color="#FFDA00" />
            <stop offset="1" stop-color="#E57900" />
        </radialGradient>
        <radialGradient id="paint1_radial_187_3045" cx="0" cy="0" r="1" gradientUnits="userSpaceOnUse"
            gradientTransform="translate(53.7251 32.9997) scale(6.25091 6.25084)">
            <stop stop-color="#FFDA00" />
            <stop offset="1" stop-color="#E57900" />
        </radialGradient>
        <radialGradient id="paint2_radial_187_3045" cx="0" cy="0" r="1" gradientUnits="userSpaceOnUse"
            gradientTransform="translate(52.9069 26.5848) scale(7.42408 7.42401)">
            <stop stop-color="#FFDA00" />
            <stop offset="1" stop-color="#E57900" />
        </radialGradient>
        <radialGradient id="paint3_radial_187_3045" cx="0" cy="0" r="1" gradientUnits="userSpaceOnUse"
            gradientTransform="translate(17.3198 35.7009) rotate(180) scale(5.46761 5.46756)">
            <stop stop-color="#FFDA00" />
            <stop offset="1" stop-color="#E57900" />
        </radialGradient>
        <radialGradient id="paint4_radial_187_3045" cx="0" cy="0" r="1" gradientUnits="userSpaceOnUse"
            gradientTransform="translate(16.275 32.9997) rotate(180) scale(6.25091 6.25084)">
            <stop stop-color="#FFDA00" />
            <stop offset="1" stop-color="#E57900" />
        </radialGradient>
        <radialGradient id="paint5_radial_187_3045" cx="0" cy="0" r="1" gradientUnits="userSpaceOnUse"
            gradientTransform="translate(17.0947 26.5848) rotate(180) scale(7.42408 7.42401)">
            <stop stop-color="#FFDA00" />
            <stop offset="1" stop-color="#E57900" />
        </radialGradient>
        <linearGradient id="paint6_linear_187_3045" x1="22.9096" y1="24.7181" x2="47.0948" y2="24.7181"
            gradientUnits="userSpaceOnUse">
            <stop stop-color="#FFC560" />
            <stop offset="0.00554859" stop-color="#FFC661" />
            <stop offset="0.1344" stop-color="#FFD96D" />
            <stop offset="0.2238" stop-color="#FFE071" />
            <stop offset="0.4942" stop-color="#FFFFB3" />
            <stop offset="0.5064" stop-color="#FFED99" />
            <stop offset="0.5261" stop-color="#FED677" />
            <stop offset="0.5479" stop-color="#FEC25A" />
            <stop offset="0.5719" stop-color="#FEB142" />
            <stop offset="0.5991" stop-color="#FDA530" />
            <stop offset="0.6312" stop-color="#FD9C23" />
            <stop offset="0.6732" stop-color="#FD961B" />
            <stop offset="0.7619" stop-color="#FD9519" />
            <stop offset="1" stop-color="#AB3911" />
        </linearGradient>
        <radialGradient id="paint7_radial_187_3045" cx="0" cy="0" r="1" gradientUnits="userSpaceOnUse"
            gradientTransform="translate(26.7195 20.8761) scale(32.8462 32.8459)">
            <stop stop-color="#FFC46B" />
            <stop offset="1" stop-color="#F68300" />
        </radialGradient>
        <radialGradient id="paint8_radial_187_3045" cx="0" cy="0" r="1" gradientUnits="userSpaceOnUse"
            gradientTransform="translate(34.4011 33.8333) rotate(-69.1454) scale(10.2894 10.2895)">
            <stop stop-color="#FFBD5B" />
            <stop offset="1" stop-color="#E57900" />
        </radialGradient>
        <linearGradient id="paint9_linear_187_3045" x1="25.4379" y1="42.1448" x2="44.5654" y2="42.1448"
            gradientUnits="userSpaceOnUse">
            <stop stop-color="#E7620C" />
            <stop offset="0.2381" stop-color="#FF9700" />
            <stop offset="0.3244" stop-color="#FF9802" />
            <stop offset="0.3653" stop-color="#FF9D0A" />
            <stop offset="0.3966" stop-color="#FFA517" />
            <stop offset="0.423" stop-color="#FFB029" />
            <stop offset="0.4464" stop-color="#FFBE41" />
            <stop offset="0.4676" stop-color="#FFD05E" />
            <stop offset="0.4867" stop-color="#FFE580" />
            <stop offset="0.5045" stop-color="#FFFDA8" />
            <stop offset="0.5058" stop-color="#FFFFAB" />
            <stop offset="0.7762" stop-color="#FFDD61" />
            <stop offset="0.8594" stop-color="#FFD65D" />
            <stop offset="0.9795" stop-color="#FFC351" />
            <stop offset="1" stop-color="#FFBF4E" />
        </linearGradient>
        <radialGradient id="paint10_radial_187_3045" cx="0" cy="0" r="1" gradientUnits="userSpaceOnUse"
            gradientTransform="translate(52.1287 35.1493) scale(5.32182 5.32176)">
            <stop stop-color="#FFDA00" />
            <stop offset="1" stop-color="#E57900" />
        </radialGradient>
        <radialGradient id="paint11_radial_187_3045" cx="0" cy="0" r="1" gradientUnits="userSpaceOnUse"
            gradientTransform="translate(53.1436 32.5238) scale(6.08423 6.08416)">
            <stop stop-color="#FFDA00" />
            <stop offset="1" stop-color="#E57900" />
        </radialGradient>
        <radialGradient id="paint12_radial_187_3045" cx="0" cy="0" r="1" gradientUnits="userSpaceOnUse"
            gradientTransform="translate(52.3472 26.2776) scale(7.22611 7.22604)">
            <stop stop-color="#FFDA00" />
            <stop offset="1" stop-color="#E57900" />
        </radialGradient>
        <radialGradient id="paint13_radial_187_3045" cx="0" cy="0" r="1" gradientUnits="userSpaceOnUse"
            gradientTransform="translate(17.706 35.1493) rotate(180) scale(5.32182 5.32176)">
            <stop stop-color="#FFDA00" />
            <stop offset="1" stop-color="#E57900" />
        </radialGradient>
        <radialGradient id="paint14_radial_187_3045" cx="0" cy="0" r="1" gradientUnits="userSpaceOnUse"
            gradientTransform="translate(16.6869 32.5238) rotate(180) scale(6.08422 6.08416)">
            <stop stop-color="#FFDA00" />
            <stop offset="1" stop-color="#E57900" />
        </radialGradient>
        <radialGradient id="paint15_radial_187_3045" cx="0" cy="0" r="1" gradientUnits="userSpaceOnUse"
            gradientTransform="translate(17.4841 26.2776) rotate(180) scale(7.22612 7.22604)">
            <stop stop-color="#FFDA00" />
            <stop offset="1" stop-color="#E57900" />
        </radialGradient>
        <linearGradient id="paint16_linear_187_3045" x1="23.1468" y1="24.459" x2="46.6872" y2="24.459"
            gradientUnits="userSpaceOnUse">
            <stop stop-color="#FFC560" />
            <stop offset="0.00554859" stop-color="#FFC661" />
            <stop offset="0.1344" stop-color="#FFD96D" />
            <stop offset="0.2238" stop-color="#FFE071" />
            <stop offset="0.4942" stop-color="#FFFFB3" />
            <stop offset="0.5064" stop-color="#FFED99" />
            <stop offset="0.5261" stop-color="#FED677" />
            <stop offset="0.5479" stop-color="#FEC25A" />
            <stop offset="0.5719" stop-color="#FEB142" />
            <stop offset="0.5991" stop-color="#FDA530" />
            <stop offset="0.6312" stop-color="#FD9C23" />
            <stop offset="0.6732" stop-color="#FD961B" />
            <stop offset="0.7619" stop-color="#FD9519" />
            <stop offset="1" stop-color="#AB3911" />
        </linearGradient>
        <radialGradient id="paint17_radial_187_3045" cx="0" cy="0" r="1" gradientUnits="userSpaceOnUse"
            gradientTransform="translate(26.8532 20.7187) scale(31.9704 31.9701)">
            <stop stop-color="#FFC46B" />
            <stop offset="1" stop-color="#F68300" />
        </radialGradient>
        <radialGradient id="paint18_radial_187_3045" cx="0" cy="0" r="1" gradientUnits="userSpaceOnUse"
            gradientTransform="translate(34.3342 33.3334) rotate(-69.1454) scale(10.0151 10.0151)">
            <stop stop-color="#FFBD5B" />
            <stop offset="1" stop-color="#E57900" />
        </radialGradient>
        <linearGradient id="paint19_linear_187_3045" x1="25.6031" y1="41.422" x2="44.2206" y2="41.422"
            gradientUnits="userSpaceOnUse">
            <stop stop-color="#E7620C" />
            <stop offset="0.2381" stop-color="#FF9700" />
            <stop offset="0.3244" stop-color="#FF9802" />
            <stop offset="0.3653" stop-color="#FF9D0A" />
            <stop offset="0.3966" stop-color="#FFA517" />
            <stop offset="0.423" stop-color="#FFB029" />
            <stop offset="0.4464" stop-color="#FFBE41" />
            <stop offset="0.4676" stop-color="#FFD05E" />
            <stop offset="0.4867" stop-color="#FFE580" />
            <stop offset="0.5045" stop-color="#FFFDA8" />
            <stop offset="0.5058" stop-color="#FFFFAB" />
            <stop offset="0.7762" stop-color="#FFDD61" />
            <stop offset="0.8594" stop-color="#FFD65D" />
            <stop offset="0.9795" stop-color="#FFC351" />
            <stop offset="1" stop-color="#FFBF4E" />
        </linearGradient>
    </defs>
</svg>